<?xml version="1.0" encoding="utf-8"?>
<!-- Generator: Adobe Illustrator 16.0.0, SVG Export Plug-In . SVG Version: 6.00 Build 0)  -->
<!DOCTYPE svg PUBLIC "-//W3C//DTD SVG 1.1//EN" "http://www.w3.org/Graphics/SVG/1.1/DTD/svg11.dtd">
<svg version="1.1" id="Layer_1" xmlns="http://www.w3.org/2000/svg" xmlns:xlink="http://www.w3.org/1999/xlink" x="0px" y="0px"
	 width="1000px" height="506px" viewBox="0 0 1000 506" enable-background="new 0 0 1000 506" xml:space="preserve">
<g>
	<path d="M181.489,68.497l14.932,33.552h-6.302l-3.442-7.632h-16.241l-3.296,7.632h-6.108l14.932-33.552H181.489z M184.397,89.185
		l-5.817-12.912l-5.77,12.912H184.397z"/>
	<path d="M236.318,91.632h-20.216c0.129,1.856,0.986,3.353,2.57,4.488c1.583,1.136,3.394,1.704,5.43,1.704
		c3.231,0,5.688-1.008,7.369-3.024l3.103,3.36c-2.78,2.849-6.399,4.272-10.86,4.272c-3.62,0-6.698-1.191-9.235-3.576
		c-2.538-2.384-3.806-5.584-3.806-9.6c0-4.016,1.292-7.208,3.878-9.576c2.585-2.368,5.631-3.552,9.139-3.552
		c3.506,0,6.488,1.048,8.944,3.144c2.456,2.096,3.685,4.984,3.685,8.664V91.632z M216.102,87.408h14.787
		c0-2.144-0.679-3.792-2.036-4.944s-3.03-1.728-5.018-1.728c-1.988,0-3.774,0.6-5.357,1.8
		C216.894,83.736,216.102,85.361,216.102,87.408z"/>
	<path d="M261.77,94.417c0,2.432-0.889,4.376-2.666,5.832c-1.778,1.457-4.057,2.184-6.836,2.184c-1.875,0-3.822-0.336-5.842-1.008
		c-2.02-0.672-3.806-1.615-5.357-2.832l2.618-4.176c3.006,2.24,5.915,3.36,8.727,3.36c1.228,0,2.197-0.28,2.909-0.84
		c0.71-0.56,1.066-1.272,1.066-2.136c0-1.279-1.713-2.432-5.139-3.456c-0.259-0.096-0.453-0.16-0.582-0.192
		c-5.366-1.44-8.048-3.84-8.048-7.2c0-2.368,0.929-4.264,2.788-5.688c1.858-1.423,4.274-2.136,7.248-2.136
		c2.973,0,5.785,0.864,8.436,2.592l-2.036,3.984c-2.101-1.375-4.38-2.064-6.835-2.064c-1.293,0-2.344,0.233-3.151,0.696
		c-0.808,0.464-1.212,1.16-1.212,2.088c0,0.833,0.419,1.44,1.26,1.824c0.582,0.288,1.398,0.56,2.448,0.816
		c1.05,0.256,1.979,0.512,2.788,0.768c0.808,0.256,1.592,0.544,2.352,0.864c0.759,0.32,1.576,0.768,2.448,1.344
		C260.897,90.192,261.77,91.985,261.77,94.417z"/>
	<path d="M291.489,97.729c-3.135,3.136-6.755,4.704-10.859,4.704c-3.588,0-6.674-1.208-9.26-3.624
		c-2.586-2.416-3.878-5.575-3.878-9.48c0-3.903,1.349-7.08,4.048-9.528c2.698-2.448,5.987-3.672,9.866-3.672
		s7.159,1.328,9.842,3.984l-3.2,3.888c-2.23-1.92-4.477-2.88-6.739-2.88c-2.263,0-4.226,0.744-5.891,2.232
		c-1.665,1.488-2.497,3.408-2.497,5.76s0.816,4.344,2.448,5.976c1.632,1.632,3.66,2.448,6.084,2.448
		c2.424,0,4.702-1.087,6.835-3.264L291.489,97.729z"/>
	<path d="M318.832,98.616c-2.586,2.544-5.817,3.816-9.696,3.816s-7.111-1.272-9.696-3.816c-2.586-2.544-3.878-5.656-3.878-9.336
		c0-3.679,1.292-6.792,3.878-9.336c2.585-2.544,5.818-3.816,9.696-3.816s7.11,1.272,9.696,3.816
		c2.585,2.544,3.878,5.657,3.878,9.336C322.71,92.96,321.417,96.072,318.832,98.616z M303.294,95.304
		c1.535,1.553,3.482,2.328,5.842,2.328c2.359,0,4.306-0.775,5.842-2.328c1.535-1.552,2.303-3.56,2.303-6.024
		c0-2.464-0.768-4.471-2.303-6.024c-1.536-1.552-3.483-2.328-5.842-2.328c-2.36,0-4.307,0.776-5.842,2.328
		c-1.536,1.553-2.303,3.56-2.303,6.024C300.991,91.745,301.758,93.752,303.294,95.304z"/>
	<path d="M335.266,102.048h-5.43V66.432h5.43V102.048z"/>
	<path d="M349.616,88.224v13.824h-5.43V66.48h5.43v14.688c0.776-1.567,1.947-2.8,3.515-3.696c1.567-0.896,3.256-1.344,5.066-1.344
		c2.909,0,5.26,0.88,7.054,2.64c1.794,1.76,2.69,4.304,2.69,7.632v15.648h-5.43V88.032c0-4.704-1.972-7.056-5.915-7.056
		c-1.875,0-3.507,0.616-4.896,1.848C350.311,84.057,349.616,85.856,349.616,88.224z"/>
	<path d="M397.562,102.048h-4.945V98.64c-2.133,2.528-4.993,3.792-8.581,3.792c-2.683,0-4.905-0.751-6.666-2.256
		c-1.762-1.504-2.642-3.511-2.642-6.024c0-2.512,0.937-4.392,2.812-5.64c1.874-1.248,4.412-1.872,7.611-1.872h7.03v-0.96
		c0-3.391-1.908-5.088-5.721-5.088c-2.393,0-4.881,0.864-7.466,2.592l-2.424-3.36c3.135-2.464,6.69-3.696,10.666-3.696
		c3.038,0,5.519,0.76,7.442,2.28c1.922,1.521,2.884,3.912,2.884,7.176V102.048z M392.132,92.544v-2.16h-6.108
		c-3.911,0-5.866,1.217-5.866,3.648c0,1.248,0.485,2.201,1.455,2.856c0.97,0.656,2.319,0.984,4.048,0.984s3.24-0.48,4.533-1.44
		C391.485,95.472,392.132,94.176,392.132,92.544z"/>
	<path d="M429.509,76.128c3.458,0,6.415,1.184,8.872,3.552c2.456,2.369,3.685,5.52,3.685,9.456s-1.22,7.136-3.66,9.6
		c-2.441,2.464-5.284,3.696-8.533,3.696c-3.248,0-6.165-1.408-8.75-4.224v13.152h-5.43V76.512h5.43v4.464
		C423.255,77.745,426.05,76.128,429.509,76.128z M421.025,89.328c0,2.433,0.743,4.424,2.23,5.976
		c1.486,1.553,3.296,2.328,5.43,2.328c2.133,0,3.991-0.768,5.575-2.304c1.583-1.536,2.375-3.528,2.375-5.976
		c0-2.448-0.776-4.48-2.327-6.096c-1.551-1.616-3.41-2.424-5.575-2.424c-2.166,0-3.992,0.808-5.478,2.424
		C421.768,84.873,421.025,86.897,421.025,89.328z"/>
	<path d="M473.238,91.632h-20.216c0.129,1.856,0.986,3.353,2.57,4.488c1.583,1.136,3.394,1.704,5.43,1.704
		c3.231,0,5.688-1.008,7.369-3.024l3.103,3.36c-2.78,2.849-6.399,4.272-10.86,4.272c-3.62,0-6.698-1.191-9.235-3.576
		c-2.538-2.384-3.806-5.584-3.806-9.6c0-4.016,1.292-7.208,3.878-9.576c2.585-2.368,5.631-3.552,9.139-3.552
		c3.506,0,6.488,1.048,8.944,3.144c2.456,2.096,3.685,4.984,3.685,8.664V91.632z M453.021,87.408h14.787
		c0-2.144-0.679-3.792-2.036-4.944s-3.03-1.728-5.018-1.728c-1.988,0-3.774,0.6-5.357,1.8
		C453.813,83.736,453.021,85.361,453.021,87.408z"/>
	<path d="M485.455,102.048h-5.43V66.432h5.43V102.048z"/>
	<path d="M515.705,98.616c-2.586,2.544-5.816,3.816-9.695,3.816s-7.111-1.272-9.696-3.816c-2.586-2.544-3.878-5.656-3.878-9.336
		c0-3.679,1.292-6.792,3.878-9.336c2.585-2.544,5.817-3.816,9.696-3.816s7.109,1.272,9.695,3.816s3.879,5.657,3.879,9.336
		C519.584,92.96,518.291,96.072,515.705,98.616z M500.168,95.304c1.535,1.553,3.482,2.328,5.842,2.328s4.307-0.775,5.842-2.328
		c1.535-1.552,2.303-3.56,2.303-6.024c0-2.464-0.768-4.471-2.303-6.024c-1.535-1.552-3.482-2.328-5.842-2.328
		s-4.307,0.776-5.842,2.328c-1.536,1.553-2.303,3.56-2.303,6.024C497.865,91.745,498.632,93.752,500.168,95.304z"/>
	<path d="M545.375,94.417c0,2.432-0.889,4.376-2.666,5.832c-1.777,1.457-4.057,2.184-6.836,2.184c-1.875,0-3.822-0.336-5.842-1.008
		s-3.806-1.615-5.357-2.832l2.618-4.176c3.006,2.24,5.915,3.36,8.727,3.36c1.228,0,2.197-0.28,2.909-0.84
		c0.71-0.56,1.066-1.272,1.066-2.136c0-1.279-1.714-2.432-5.139-3.456c-0.26-0.096-0.453-0.16-0.582-0.192
		c-5.365-1.44-8.048-3.84-8.048-7.2c0-2.368,0.929-4.264,2.788-5.688c1.857-1.423,4.273-2.136,7.247-2.136s5.785,0.864,8.436,2.592
		l-2.036,3.984c-2.102-1.375-4.38-2.064-6.836-2.064c-1.293,0-2.344,0.233-3.15,0.696c-0.809,0.464-1.213,1.16-1.213,2.088
		c0,0.833,0.42,1.44,1.261,1.824c0.582,0.288,1.397,0.56,2.448,0.816c1.051,0.256,1.979,0.512,2.787,0.768
		c0.809,0.256,1.592,0.544,2.352,0.864c0.76,0.32,1.576,0.768,2.449,1.344C544.502,90.192,545.375,91.985,545.375,94.417z"/>
	<path d="M584.109,98.616c-2.586,2.544-5.816,3.816-9.695,3.816s-7.111-1.272-9.696-3.816c-2.586-2.544-3.878-5.656-3.878-9.336
		c0-3.679,1.292-6.792,3.878-9.336c2.585-2.544,5.817-3.816,9.696-3.816s7.109,1.272,9.695,3.816s3.879,5.657,3.879,9.336
		C587.988,92.96,586.695,96.072,584.109,98.616z M568.572,95.304c1.535,1.553,3.482,2.328,5.842,2.328s4.307-0.775,5.842-2.328
		c1.535-1.552,2.303-3.56,2.303-6.024c0-2.464-0.768-4.471-2.303-6.024c-1.535-1.552-3.482-2.328-5.842-2.328
		s-4.307,0.776-5.842,2.328c-1.535,1.553-2.303,3.56-2.303,6.024C566.27,91.745,567.037,93.752,568.572,95.304z"/>
	<path d="M608.883,76.128l0.049,5.424c-0.097,0-0.193,0-0.291,0c-2.683,0-4.702,0.864-6.06,2.592s-2.036,4.048-2.036,6.96v10.944
		h-5.43V76.512h5.43v5.136c0.873-1.6,2.061-2.912,3.563-3.936C605.611,76.688,607.203,76.161,608.883,76.128z"/>
	<path d="M638.893,76.512v22.272c0,4.512-1.236,7.896-3.709,10.152c-2.473,2.256-5.648,3.384-9.526,3.384s-7.386-1.2-10.521-3.6
		l2.57-4.08c2.521,1.888,5.065,2.832,7.635,2.832c2.57,0,4.605-0.656,6.109-1.968c1.502-1.312,2.254-3.408,2.254-6.288v-3.264
		c-0.809,1.505-1.964,2.705-3.467,3.6c-1.502,0.896-3.191,1.344-5.066,1.344c-3.426,0-6.238-1.184-8.436-3.552
		c-2.197-2.368-3.297-5.312-3.297-8.832c0-3.52,1.1-6.463,3.297-8.832c2.197-2.368,5.002-3.552,8.412-3.552
		c3.409,0,6.181,1.392,8.314,4.176v-3.792H638.893z M618.773,88.296c0,2.096,0.654,3.904,1.963,5.424
		c1.309,1.521,3.07,2.28,5.284,2.28s4.007-0.736,5.382-2.208c1.373-1.472,2.061-3.304,2.061-5.496c0-2.191-0.695-4.048-2.085-5.568
		c-1.39-1.52-3.185-2.28-5.382-2.28s-3.951,0.785-5.26,2.352C619.428,84.369,618.773,86.201,618.773,88.296z"/>
	<path d="M669.191,102.048h-4.944V98.64c-2.133,2.528-4.993,3.792-8.581,3.792c-2.684,0-4.904-0.751-6.666-2.256
		c-1.762-1.504-2.643-3.511-2.643-6.024c0-2.512,0.938-4.392,2.812-5.64c1.874-1.248,4.412-1.872,7.611-1.872h7.029v-0.96
		c0-3.391-1.907-5.088-5.721-5.088c-2.393,0-4.881,0.864-7.466,2.592l-2.424-3.36c3.135-2.464,6.69-3.696,10.665-3.696
		c3.038,0,5.52,0.76,7.442,2.28c1.923,1.521,2.884,3.912,2.884,7.176V102.048z M661.823,73.2l-4.218-3.744l-4.218,3.744h-4.218
		l5.914-7.488h4.945l5.866,7.488H661.823z M663.762,92.544v-2.16h-6.107c-3.912,0-5.867,1.217-5.867,3.648
		c0,1.248,0.485,2.201,1.455,2.856c0.97,0.656,2.318,0.984,4.048,0.984s3.24-0.48,4.533-1.44
		C663.115,95.472,663.762,94.176,663.762,92.544z"/>
	<path d="M683.057,88.224v13.824h-5.43V76.512h5.43v4.656c0.873-1.567,2.076-2.8,3.612-3.696c1.534-0.896,3.191-1.344,4.97-1.344
		c2.908,0,5.26,0.88,7.053,2.64c1.795,1.76,2.691,4.304,2.691,7.632v15.648h-5.43V88.032c0-4.704-1.973-7.056-5.915-7.056
		c-1.874,0-3.507,0.616-4.896,1.848C683.752,84.057,683.057,85.856,683.057,88.224z"/>
	<path d="M710.884,71.448c-0.679-0.688-1.019-1.496-1.019-2.424c0-0.928,0.34-1.711,1.019-2.352c0.679-0.64,1.495-0.96,2.448-0.96
		s1.753,0.32,2.4,0.96c0.646,0.641,0.969,1.424,0.969,2.352c0,0.928-0.339,1.736-1.018,2.424c-0.679,0.688-1.479,1.032-2.4,1.032
		C712.363,72.48,711.562,72.137,710.884,71.448z M715.975,102.048h-5.43V76.512h5.43V102.048z"/>
	<path d="M748.262,97.729c-3.135,3.136-6.756,4.704-10.859,4.704c-3.588,0-6.674-1.208-9.26-3.624
		c-2.586-2.416-3.879-5.575-3.879-9.48c0-3.903,1.35-7.08,4.049-9.528c2.697-2.448,5.986-3.672,9.865-3.672s7.158,1.328,9.842,3.984
		L744.82,84c-2.23-1.92-4.478-2.88-6.739-2.88c-2.263,0-4.226,0.744-5.891,2.232c-1.665,1.488-2.497,3.408-2.497,5.76
		s0.816,4.344,2.449,5.976c1.631,1.632,3.66,2.448,6.084,2.448s4.702-1.087,6.836-3.264L748.262,97.729z"/>
	<path d="M775.604,98.616c-2.586,2.544-5.817,3.816-9.696,3.816c-3.878,0-7.11-1.272-9.695-3.816
		c-2.586-2.544-3.879-5.656-3.879-9.336c0-3.679,1.293-6.792,3.879-9.336c2.585-2.544,5.817-3.816,9.695-3.816
		c3.879,0,7.11,1.272,9.696,3.816c2.585,2.544,3.878,5.657,3.878,9.336C779.482,92.96,778.189,96.072,775.604,98.616z
		 M760.066,95.304c1.535,1.553,3.482,2.328,5.842,2.328s4.307-0.775,5.842-2.328c1.535-1.552,2.303-3.56,2.303-6.024
		c0-2.464-0.768-4.471-2.303-6.024c-1.535-1.552-3.482-2.328-5.842-2.328s-4.307,0.776-5.842,2.328
		c-1.535,1.553-2.303,3.56-2.303,6.024C757.764,91.745,758.531,93.752,760.066,95.304z"/>
	<path d="M805.274,94.417c0,2.432-0.89,4.376-2.666,5.832c-1.778,1.457-4.057,2.184-6.836,2.184c-1.875,0-3.822-0.336-5.842-1.008
		c-2.021-0.672-3.806-1.615-5.356-2.832l2.617-4.176c3.006,2.24,5.914,3.36,8.727,3.36c1.229,0,2.197-0.28,2.908-0.84
		c0.711-0.56,1.066-1.272,1.066-2.136c0-1.279-1.713-2.432-5.139-3.456c-0.259-0.096-0.453-0.16-0.581-0.192
		c-5.366-1.44-8.048-3.84-8.048-7.2c0-2.368,0.929-4.264,2.787-5.688c1.858-1.423,4.274-2.136,7.248-2.136
		c2.973,0,5.785,0.864,8.436,2.592l-2.036,3.984c-2.101-1.375-4.38-2.064-6.835-2.064c-1.293,0-2.344,0.233-3.152,0.696
		c-0.808,0.464-1.211,1.16-1.211,2.088c0,0.833,0.419,1.44,1.26,1.824c0.582,0.288,1.398,0.56,2.448,0.816
		c1.05,0.256,1.979,0.512,2.788,0.768c0.807,0.256,1.592,0.544,2.352,0.864c0.758,0.32,1.575,0.768,2.447,1.344
		C804.402,90.192,805.274,91.985,805.274,94.417z"/>
	<path d="M135.966,130.4v2.112h6.787v4.32h-6.787v21.216h-5.43v-21.216h-3.248v-4.32h3.248v-1.968c0-2.688,0.816-4.824,2.448-6.408
		c1.632-1.584,3.604-2.376,5.915-2.376c2.311,0,4.419,0.848,6.327,2.544l-2.23,3.792c-1.067-1.12-2.182-1.68-3.345-1.68
		s-2.069,0.36-2.715,1.08C136.289,128.216,135.966,129.185,135.966,130.4z"/>
	<path d="M171.162,158.048h-4.945v-3.408c-2.133,2.528-4.993,3.792-8.581,3.792c-2.683,0-4.905-0.751-6.666-2.256
		c-1.762-1.504-2.642-3.511-2.642-6.024c0-2.512,0.937-4.392,2.812-5.64c1.874-1.248,4.412-1.872,7.611-1.872h7.03v-0.96
		c0-3.391-1.908-5.088-5.721-5.088c-2.393,0-4.881,0.864-7.466,2.592l-2.424-3.36c3.135-2.464,6.69-3.696,10.666-3.696
		c3.038,0,5.519,0.76,7.442,2.28c1.922,1.521,2.884,3.912,2.884,7.176V158.048z M165.732,148.544v-2.16h-6.108
		c-3.911,0-5.866,1.217-5.866,3.648c0,1.248,0.485,2.201,1.455,2.856c0.97,0.656,2.319,0.984,4.048,0.984s3.24-0.48,4.533-1.44
		C165.085,151.472,165.732,150.176,165.732,148.544z"/>
	<path d="M186.239,158.048l-10.375-25.536h5.624l7.854,19.296l7.854-19.296h5.624l-10.375,25.536H186.239z"/>
	<path d="M229.822,154.616c-2.586,2.544-5.817,3.816-9.696,3.816s-7.111-1.272-9.696-3.816c-2.586-2.544-3.878-5.656-3.878-9.336
		c0-3.679,1.292-6.792,3.878-9.336c2.585-2.544,5.818-3.816,9.696-3.816s7.11,1.272,9.696,3.816
		c2.585,2.544,3.878,5.657,3.878,9.336C233.701,148.96,232.408,152.072,229.822,154.616z M214.285,151.304
		c1.535,1.553,3.482,2.328,5.842,2.328c2.359,0,4.306-0.775,5.842-2.328c1.535-1.552,2.303-3.56,2.303-6.024
		c0-2.464-0.768-4.471-2.303-6.024c-1.536-1.552-3.483-2.328-5.842-2.328c-2.36,0-4.307,0.776-5.842,2.328
		c-1.536,1.553-2.303,3.56-2.303,6.024C211.982,147.745,212.749,149.752,214.285,151.304z"/>
	<path d="M254.596,132.128l0.049,5.424c-0.097,0-0.194,0-0.291,0c-2.683,0-4.703,0.864-6.06,2.592s-2.036,4.048-2.036,6.96v10.944
		h-5.43v-25.536h5.43v5.136c0.873-1.6,2.061-2.912,3.563-3.936C251.323,132.688,252.915,132.161,254.596,132.128z"/>
	<path d="M285.768,147.632h-20.216c0.129,1.856,0.986,3.353,2.57,4.488c1.583,1.136,3.394,1.704,5.43,1.704
		c3.231,0,5.688-1.008,7.369-3.024l3.103,3.36c-2.78,2.849-6.399,4.272-10.86,4.272c-3.62,0-6.698-1.191-9.235-3.576
		c-2.538-2.384-3.806-5.584-3.806-9.6c0-4.016,1.292-7.208,3.878-9.576c2.585-2.368,5.631-3.552,9.139-3.552
		c3.506,0,6.488,1.048,8.944,3.144c2.456,2.096,3.685,4.984,3.685,8.664V147.632z M265.552,143.408h14.787
		c0-2.144-0.679-3.792-2.036-4.944s-3.03-1.728-5.018-1.728c-1.988,0-3.774,0.6-5.357,1.8
		C266.344,139.736,265.552,141.361,265.552,143.408z"/>
	<path d="M315.05,153.729c-3.135,3.136-6.755,4.704-10.859,4.704c-3.588,0-6.674-1.208-9.26-3.624
		c-2.586-2.416-3.878-5.575-3.878-9.48c0-3.903,1.349-7.08,4.048-9.528c2.698-2.448,5.987-3.672,9.866-3.672
		s7.159,1.328,9.842,3.984l-3.2,3.888c-2.23-1.92-4.477-2.88-6.739-2.88c-2.263,0-4.226,0.744-5.891,2.232
		c-1.665,1.488-2.497,3.408-2.497,5.76s0.816,4.344,2.448,5.976c1.632,1.632,3.66,2.448,6.084,2.448
		c2.424,0,4.702-1.087,6.835-3.264L315.05,153.729z"/>
	<path d="M345.253,147.632h-20.216c0.129,1.856,0.986,3.353,2.57,4.488c1.583,1.136,3.394,1.704,5.43,1.704
		c3.231,0,5.688-1.008,7.369-3.024l3.103,3.36c-2.78,2.849-6.399,4.272-10.86,4.272c-3.62,0-6.698-1.191-9.235-3.576
		c-2.538-2.384-3.806-5.584-3.806-9.6c0-4.016,1.292-7.208,3.878-9.576c2.585-2.368,5.631-3.552,9.139-3.552
		c3.506,0,6.488,1.048,8.944,3.144c2.456,2.096,3.685,4.984,3.685,8.664V147.632z M325.037,143.408h14.787
		c0-2.144-0.679-3.792-2.036-4.944s-3.03-1.728-5.018-1.728c-1.988,0-3.774,0.6-5.357,1.8
		C325.829,139.736,325.037,141.361,325.037,143.408z"/>
	<path d="M383.6,158.048h-4.945v-3.408c-2.133,2.528-4.993,3.792-8.581,3.792c-2.683,0-4.905-0.751-6.666-2.256
		c-1.762-1.504-2.642-3.511-2.642-6.024c0-2.512,0.937-4.392,2.812-5.64c1.874-1.248,4.412-1.872,7.611-1.872h7.03v-0.96
		c0-3.391-1.908-5.088-5.721-5.088c-2.393,0-4.881,0.864-7.466,2.592l-2.424-3.36c3.135-2.464,6.69-3.696,10.666-3.696
		c3.038,0,5.519,0.76,7.442,2.28c1.922,1.521,2.884,3.912,2.884,7.176V158.048z M378.17,148.544v-2.16h-6.108
		c-3.911,0-5.866,1.217-5.866,3.648c0,1.248,0.485,2.201,1.455,2.856c0.97,0.656,2.319,0.984,4.048,0.984s3.24-0.48,4.533-1.44
		C377.523,151.472,378.17,150.176,378.17,148.544z"/>
	<path d="M420.396,150.417c0,2.432-0.889,4.376-2.666,5.832c-1.778,1.457-4.057,2.184-6.836,2.184c-1.875,0-3.822-0.336-5.842-1.008
		c-2.02-0.672-3.806-1.615-5.357-2.832l2.618-4.176c3.006,2.24,5.915,3.36,8.727,3.36c1.228,0,2.197-0.28,2.909-0.84
		c0.71-0.56,1.066-1.272,1.066-2.136c0-1.279-1.713-2.432-5.139-3.456c-0.259-0.096-0.453-0.16-0.582-0.192
		c-5.366-1.44-8.048-3.84-8.048-7.2c0-2.368,0.929-4.264,2.788-5.688c1.858-1.423,4.274-2.136,7.248-2.136
		c2.973,0,5.785,0.864,8.436,2.592l-2.036,3.984c-2.101-1.375-4.38-2.064-6.835-2.064c-1.293,0-2.344,0.233-3.151,0.696
		c-0.808,0.464-1.212,1.16-1.212,2.088c0,0.833,0.419,1.44,1.26,1.824c0.582,0.288,1.398,0.56,2.448,0.816
		c1.05,0.256,1.979,0.512,2.788,0.768c0.808,0.256,1.592,0.544,2.352,0.864c0.759,0.32,1.576,0.768,2.448,1.344
		C419.523,146.192,420.396,147.985,420.396,150.417z"/>
	<path d="M448.999,158.048h-4.945v-3.408c-2.133,2.528-4.993,3.792-8.581,3.792c-2.683,0-4.905-0.751-6.666-2.256
		c-1.762-1.504-2.642-3.511-2.642-6.024c0-2.512,0.937-4.392,2.812-5.64c1.874-1.248,4.412-1.872,7.611-1.872h7.03v-0.96
		c0-3.391-1.908-5.088-5.721-5.088c-2.393,0-4.881,0.864-7.466,2.592l-2.424-3.36c3.135-2.464,6.69-3.696,10.666-3.696
		c3.038,0,5.519,0.76,7.442,2.28c1.922,1.521,2.884,3.912,2.884,7.176V158.048z M443.569,148.544v-2.16h-6.108
		c-3.911,0-5.866,1.217-5.866,3.648c0,1.248,0.485,2.201,1.455,2.856c0.97,0.656,2.319,0.984,4.048,0.984s3.24-0.48,4.533-1.44
		C442.922,151.472,443.569,150.176,443.569,148.544z"/>
	<path d="M474.45,146.336v-13.824h5.43v25.536h-5.43v-4.656c-0.873,1.568-2.077,2.8-3.611,3.696
		c-1.536,0.896-3.192,1.344-4.969,1.344c-2.909,0-5.26-0.879-7.054-2.64c-1.793-1.76-2.69-4.304-2.69-7.632v-15.648h5.43v14.016
		c0,4.704,1.971,7.056,5.915,7.056c1.874,0,3.506-0.616,4.896-1.848C473.755,150.505,474.45,148.705,474.45,146.336z
		 M469.554,129.152h-4.945l5.139-6.96l5.72,2.352L469.554,129.152z"/>
	<path d="M490.4,154.784c-2.424-2.431-3.636-5.631-3.636-9.6c0-3.968,1.244-7.136,3.733-9.504c2.488-2.368,5.454-3.552,8.896-3.552
		c3.442,0,6.212,1.44,8.314,4.32v-14.016h5.43v35.616h-5.43v-3.84c-2.004,2.816-4.929,4.224-8.774,4.224
		C495.667,158.432,492.824,157.217,490.4,154.784z M492.194,145.4c0,2.448,0.792,4.44,2.375,5.976
		c1.583,1.536,3.442,2.304,5.575,2.304c2.133,0,3.943-0.775,5.43-2.328c1.486-1.552,2.23-3.544,2.23-5.976
		c0-2.432-0.744-4.464-2.23-6.096s-3.313-2.448-5.479-2.448c-2.166,0-4.023,0.816-5.575,2.448
		C492.969,140.912,492.194,142.952,492.194,145.4z"/>
	<path d="M546.248,147.632h-20.216c0.129,1.856,0.985,3.353,2.569,4.488c1.584,1.136,3.395,1.704,5.43,1.704
		c3.232,0,5.688-1.008,7.369-3.024l3.104,3.36c-2.781,2.849-6.4,4.272-10.86,4.272c-3.62,0-6.698-1.191-9.235-3.576
		c-2.537-2.384-3.806-5.584-3.806-9.6c0-4.016,1.292-7.208,3.878-9.576c2.586-2.368,5.632-3.552,9.139-3.552
		s6.488,1.048,8.945,3.144c2.455,2.096,3.684,4.984,3.684,8.664V147.632z M526.032,143.408h14.786c0-2.144-0.678-3.792-2.035-4.944
		s-3.031-1.728-5.018-1.728c-1.988,0-3.774,0.6-5.357,1.8C526.824,139.736,526.032,141.361,526.032,143.408z"/>
	<path d="M568.646,144.224v13.824h-5.43v-25.536h5.43v4.656c0.872-1.567,2.076-2.8,3.611-3.696c1.535-0.896,3.191-1.344,4.969-1.344
		c2.909,0,5.26,0.88,7.055,2.64c1.793,1.76,2.689,4.304,2.689,7.632v15.648h-5.43v-14.016c0-4.704-1.971-7.056-5.914-7.056
		c-1.875,0-3.507,0.616-4.896,1.848C569.341,140.057,568.646,141.856,568.646,144.224z"/>
	<path d="M616.592,158.048h-4.945v-3.408c-2.133,2.528-4.992,3.792-8.58,3.792c-2.684,0-4.905-0.751-6.666-2.256
		c-1.762-1.504-2.643-3.511-2.643-6.024c0-2.512,0.938-4.392,2.812-5.64c1.873-1.248,4.411-1.872,7.611-1.872h7.029v-0.96
		c0-3.391-1.908-5.088-5.721-5.088c-2.393,0-4.881,0.864-7.467,2.592l-2.424-3.36c3.135-2.464,6.691-3.696,10.666-3.696
		c3.037,0,5.519,0.76,7.441,2.28c1.923,1.521,2.885,3.912,2.885,7.176V158.048z M613.102,123.776c0,1.792-0.404,3.176-1.212,4.152
		c-0.809,0.977-1.858,1.464-3.151,1.464c-0.775,0-1.455-0.12-2.036-0.36c-0.582-0.24-1.454-0.728-2.618-1.464
		c-0.679-0.384-1.229-0.576-1.648-0.576c-0.904,0-1.438,0.752-1.6,2.256h-3.199c0-1.76,0.403-3.128,1.211-4.104
		c0.809-0.976,1.859-1.464,3.152-1.464c0.742,0,1.405,0.12,1.987,0.36c0.581,0.24,1.47,0.728,2.667,1.464
		c0.71,0.384,1.243,0.576,1.6,0.576c0.937,0,1.486-0.768,1.648-2.304H613.102z M611.162,148.544v-2.16h-6.108
		c-3.911,0-5.866,1.217-5.866,3.648c0,1.248,0.484,2.201,1.455,2.856c0.969,0.656,2.318,0.984,4.047,0.984
		c1.729,0,3.24-0.48,4.533-1.44C610.516,151.472,611.162,150.176,611.162,148.544z"/>
	<path d="M646.358,154.616c-2.586,2.544-5.817,3.816-9.696,3.816c-3.878,0-7.11-1.272-9.695-3.816
		c-2.586-2.544-3.879-5.656-3.879-9.336c0-3.679,1.293-6.792,3.879-9.336c2.585-2.544,5.817-3.816,9.695-3.816
		c3.879,0,7.11,1.272,9.696,3.816c2.585,2.544,3.878,5.657,3.878,9.336C650.236,148.96,648.943,152.072,646.358,154.616z
		 M630.82,151.304c1.535,1.553,3.482,2.328,5.842,2.328s4.307-0.775,5.842-2.328c1.535-1.552,2.303-3.56,2.303-6.024
		c0-2.464-0.768-4.471-2.303-6.024c-1.535-1.552-3.482-2.328-5.842-2.328s-4.307,0.776-5.842,2.328
		c-1.535,1.553-2.303,3.56-2.303,6.024C628.518,147.745,629.285,149.752,630.82,151.304z"/>
	<path d="M688.923,158.048h-4.944v-3.408c-2.133,2.528-4.994,3.792-8.582,3.792c-2.683,0-4.904-0.751-6.666-2.256
		c-1.762-1.504-2.642-3.511-2.642-6.024c0-2.512,0.937-4.392,2.812-5.64s4.412-1.872,7.611-1.872h7.03v-0.96
		c0-3.391-1.907-5.088-5.721-5.088c-2.393,0-4.881,0.864-7.466,2.592l-2.424-3.36c3.135-2.464,6.689-3.696,10.665-3.696
		c3.038,0,5.519,0.76,7.442,2.28c1.922,1.521,2.884,3.912,2.884,7.176V158.048z M683.493,148.544v-2.16h-6.108
		c-3.911,0-5.866,1.217-5.866,3.648c0,1.248,0.485,2.201,1.454,2.856c0.971,0.656,2.319,0.984,4.049,0.984
		c1.729,0,3.24-0.48,4.533-1.44C682.846,151.472,683.493,150.176,683.493,148.544z"/>
	<path d="M710.69,132.128c3.458,0,6.415,1.184,8.872,3.552c2.455,2.369,3.684,5.52,3.684,9.456s-1.22,7.136-3.66,9.6
		c-2.44,2.464-5.283,3.696-8.532,3.696c-3.248,0-6.165-1.408-8.751-4.224v13.152h-5.43v-34.848h5.43v4.464
		C704.437,133.745,707.231,132.128,710.69,132.128z M702.206,145.328c0,2.433,0.743,4.424,2.23,5.976
		c1.485,1.553,3.296,2.328,5.43,2.328c2.133,0,3.991-0.768,5.575-2.304c1.583-1.536,2.375-3.528,2.375-5.976
		c0-2.448-0.775-4.48-2.326-6.096c-1.552-1.616-3.41-2.424-5.576-2.424c-2.165,0-3.992,0.808-5.478,2.424
		C702.949,140.873,702.206,142.897,702.206,145.328z"/>
	<path d="M754.418,147.632h-20.216c0.129,1.856,0.985,3.353,2.569,4.488c1.584,1.136,3.395,1.704,5.43,1.704
		c3.232,0,5.688-1.008,7.369-3.024l3.104,3.36c-2.781,2.849-6.4,4.272-10.86,4.272c-3.62,0-6.698-1.191-9.235-3.576
		c-2.537-2.384-3.806-5.584-3.806-9.6c0-4.016,1.292-7.208,3.878-9.576c2.586-2.368,5.632-3.552,9.139-3.552
		s6.488,1.048,8.945,3.144c2.455,2.096,3.684,4.984,3.684,8.664V147.632z M734.202,143.408h14.786c0-2.144-0.678-3.792-2.035-4.944
		s-3.031-1.728-5.018-1.728c-1.988,0-3.774,0.6-5.357,1.8C734.994,139.736,734.202,141.361,734.202,143.408z"/>
	<path d="M766.636,144.224v13.824h-5.43v-25.536h5.43v4.656c0.872-1.567,2.076-2.8,3.612-3.696c1.534-0.896,3.191-1.344,4.969-1.344
		c2.908,0,5.26,0.88,7.054,2.64c1.794,1.76,2.69,4.304,2.69,7.632v15.648h-5.43v-14.016c0-4.704-1.972-7.056-5.914-7.056
		c-1.875,0-3.508,0.616-4.896,1.848C767.33,140.057,766.636,141.856,766.636,144.224z"/>
	<path d="M814.582,158.048h-4.945v-3.408c-2.133,2.528-4.993,3.792-8.581,3.792c-2.683,0-4.905-0.751-6.666-2.256
		c-1.762-1.504-2.642-3.511-2.642-6.024c0-2.512,0.937-4.392,2.812-5.64c1.874-1.248,4.411-1.872,7.611-1.872h7.029v-0.96
		c0-3.391-1.907-5.088-5.72-5.088c-2.393,0-4.881,0.864-7.467,2.592l-2.424-3.36c3.135-2.464,6.69-3.696,10.666-3.696
		c3.037,0,5.518,0.76,7.441,2.28c1.923,1.521,2.885,3.912,2.885,7.176V158.048z M809.152,148.544v-2.16h-6.109
		c-3.91,0-5.865,1.217-5.865,3.648c0,1.248,0.484,2.201,1.454,2.856c0.97,0.656,2.319,0.984,4.048,0.984s3.24-0.48,4.533-1.44
		C808.505,151.472,809.152,150.176,809.152,148.544z"/>
	<path d="M841.197,150.417c0,2.432-0.89,4.376-2.667,5.832c-1.777,1.457-4.056,2.184-6.835,2.184c-1.875,0-3.823-0.336-5.843-1.008
		s-3.806-1.615-5.356-2.832l2.618-4.176c3.006,2.24,5.914,3.36,8.726,3.36c1.229,0,2.198-0.28,2.909-0.84
		c0.711-0.56,1.066-1.272,1.066-2.136c0-1.279-1.713-2.432-5.139-3.456c-0.259-0.096-0.453-0.16-0.582-0.192
		c-5.365-1.44-8.048-3.84-8.048-7.2c0-2.368,0.929-4.264,2.788-5.688c1.858-1.423,4.273-2.136,7.248-2.136
		c2.973,0,5.785,0.864,8.436,2.592l-2.036,3.984c-2.102-1.375-4.38-2.064-6.836-2.064c-1.293,0-2.344,0.233-3.151,0.696
		c-0.809,0.464-1.212,1.16-1.212,2.088c0,0.833,0.42,1.44,1.261,1.824c0.581,0.288,1.397,0.56,2.448,0.816
		c1.05,0.256,1.979,0.512,2.787,0.768c0.808,0.256,1.592,0.544,2.352,0.864c0.759,0.32,1.575,0.768,2.448,1.344
		C840.324,146.192,841.197,147.985,841.197,150.417z"/>
	<path d="M141.42,210.784c-2.424-2.431-3.636-5.631-3.636-9.6c0-3.968,1.244-7.136,3.733-9.504c2.488-2.368,5.454-3.552,8.896-3.552
		c3.442,0,6.213,1.44,8.314,4.32v-14.016h5.43v35.616h-5.43v-3.84c-2.004,2.816-4.929,4.224-8.774,4.224
		C146.688,214.432,143.844,213.217,141.42,210.784z M143.214,201.4c0,2.448,0.792,4.44,2.375,5.976
		c1.583,1.536,3.442,2.304,5.575,2.304c2.133,0,3.943-0.775,5.43-2.328c1.486-1.552,2.23-3.544,2.23-5.976
		c0-2.432-0.744-4.464-2.23-6.096c-1.487-1.632-3.313-2.448-5.479-2.448c-2.166,0-4.023,0.816-5.575,2.448
		C143.989,196.912,143.214,198.952,143.214,201.4z"/>
	<path d="M194.457,214.048h-4.945v-3.408c-2.133,2.528-4.993,3.792-8.581,3.792c-2.683,0-4.905-0.751-6.666-2.256
		c-1.762-1.504-2.642-3.511-2.642-6.024c0-2.512,0.937-4.392,2.812-5.64c1.874-1.248,4.412-1.872,7.611-1.872h7.03v-0.96
		c0-3.391-1.908-5.088-5.721-5.088c-2.393,0-4.881,0.864-7.466,2.592l-2.424-3.36c3.135-2.464,6.69-3.696,10.666-3.696
		c3.038,0,5.519,0.76,7.442,2.28c1.922,1.521,2.884,3.912,2.884,7.176V214.048z M189.027,204.544v-2.16h-6.108
		c-3.911,0-5.866,1.217-5.866,3.648c0,1.248,0.485,2.201,1.455,2.856c0.97,0.656,2.319,0.984,4.048,0.984s3.24-0.48,4.533-1.44
		C188.38,207.472,189.027,206.176,189.027,204.544z"/>
	<path d="M212.467,214.432c-3.248,0-6.093-1.231-8.533-3.696c-2.44-2.464-3.66-5.664-3.66-9.6s1.228-7.087,3.685-9.456
		c2.456-2.368,5.413-3.552,8.872-3.552c3.458,0,6.254,1.616,8.387,4.848v-4.464h5.43v34.848h-5.43v-13.152
		C218.631,213.024,215.715,214.432,212.467,214.432z M205.704,201.353c0,2.448,0.792,4.44,2.375,5.976
		c1.583,1.536,3.442,2.304,5.575,2.304c2.133,0,3.943-0.775,5.43-2.328c1.486-1.552,2.23-3.543,2.23-5.976
		c0-2.431-0.744-4.456-2.23-6.072c-1.487-1.616-3.313-2.424-5.479-2.424c-2.166,0-4.024,0.808-5.575,2.424
		C206.479,196.873,205.704,198.904,205.704,201.353z"/>
	<path d="M253.068,202.336v-13.824h5.43v25.536h-5.43v-4.656c-0.873,1.568-2.077,2.8-3.611,3.696
		c-1.536,0.896-3.192,1.344-4.969,1.344c-2.909,0-5.26-0.879-7.054-2.64c-1.793-1.76-2.69-4.304-2.69-7.632v-15.648h5.43v14.016
		c0,4.704,1.971,7.056,5.915,7.056c1.874,0,3.506-0.616,4.896-1.848C252.373,206.505,253.068,204.705,253.068,202.336z"/>
	<path d="M291.658,203.632h-20.216c0.129,1.856,0.986,3.353,2.57,4.488c1.583,1.136,3.394,1.704,5.43,1.704
		c3.231,0,5.688-1.008,7.369-3.024l3.103,3.36c-2.78,2.849-6.399,4.272-10.86,4.272c-3.62,0-6.698-1.191-9.235-3.576
		c-2.538-2.384-3.806-5.584-3.806-9.6c0-4.016,1.292-7.208,3.878-9.576c2.585-2.368,5.631-3.552,9.139-3.552
		c3.506,0,6.488,1.048,8.944,3.144c2.456,2.096,3.685,4.984,3.685,8.664V203.632z M271.442,199.408h14.787
		c0-2.144-0.679-3.792-2.036-4.944s-3.03-1.728-5.018-1.728c-1.988,0-3.774,0.6-5.357,1.8
		C272.234,195.736,271.442,197.361,271.442,199.408z"/>
	<path d="M303.875,214.048h-5.43v-35.616h5.43V214.048z"/>
	<path d="M336.986,203.632H316.77c0.129,1.856,0.986,3.353,2.57,4.488c1.583,1.136,3.394,1.704,5.43,1.704
		c3.231,0,5.688-1.008,7.369-3.024l3.103,3.36c-2.78,2.849-6.399,4.272-10.86,4.272c-3.62,0-6.698-1.191-9.235-3.576
		c-2.538-2.384-3.806-5.584-3.806-9.6c0-4.016,1.292-7.208,3.878-9.576c2.585-2.368,5.631-3.552,9.139-3.552
		c3.506,0,6.488,1.048,8.944,3.144c2.456,2.096,3.685,4.984,3.685,8.664V203.632z M316.77,199.408h14.787
		c0-2.144-0.679-3.792-2.036-4.944s-3.03-1.728-5.018-1.728c-1.988,0-3.774,0.6-5.357,1.8
		C317.562,195.736,316.77,197.361,316.77,199.408z"/>
	<path d="M362.438,206.417c0,2.432-0.889,4.376-2.666,5.832c-1.778,1.457-4.057,2.184-6.836,2.184c-1.875,0-3.822-0.336-5.842-1.008
		c-2.02-0.672-3.806-1.615-5.357-2.832l2.618-4.176c3.006,2.24,5.915,3.36,8.727,3.36c1.228,0,2.197-0.28,2.909-0.84
		c0.71-0.56,1.066-1.272,1.066-2.136c0-1.279-1.713-2.432-5.139-3.456c-0.259-0.096-0.453-0.16-0.582-0.192
		c-5.366-1.44-8.048-3.84-8.048-7.2c0-2.368,0.929-4.264,2.788-5.688c1.858-1.423,4.274-2.136,7.248-2.136
		c2.973,0,5.785,0.864,8.436,2.592l-2.036,3.984c-2.101-1.375-4.38-2.064-6.835-2.064c-1.293,0-2.344,0.233-3.151,0.696
		c-0.808,0.464-1.212,1.16-1.212,2.088c0,0.833,0.419,1.44,1.26,1.824c0.582,0.288,1.398,0.56,2.448,0.816
		c1.05,0.256,1.979,0.512,2.788,0.768c0.808,0.256,1.592,0.544,2.352,0.864c0.759,0.32,1.576,0.768,2.448,1.344
		C361.565,202.192,362.438,203.985,362.438,206.417z"/>
	<path d="M389.901,214.432c-3.248,0-6.093-1.231-8.533-3.696c-2.44-2.464-3.66-5.664-3.66-9.6s1.228-7.087,3.685-9.456
		c2.456-2.368,5.413-3.552,8.872-3.552c3.458,0,6.254,1.616,8.387,4.848v-4.464h5.43v34.848h-5.43v-13.152
		C396.066,213.024,393.149,214.432,389.901,214.432z M383.138,201.353c0,2.448,0.792,4.44,2.375,5.976
		c1.583,1.536,3.442,2.304,5.575,2.304c2.133,0,3.943-0.775,5.43-2.328c1.486-1.552,2.23-3.543,2.23-5.976
		c0-2.431-0.744-4.456-2.23-6.072c-1.487-1.616-3.313-2.424-5.479-2.424c-2.166,0-4.024,0.808-5.575,2.424
		C383.914,196.873,383.138,198.904,383.138,201.353z"/>
	<path d="M430.502,202.336v-13.824h5.43v25.536h-5.43v-4.656c-0.873,1.568-2.077,2.8-3.611,3.696
		c-1.536,0.896-3.192,1.344-4.969,1.344c-2.909,0-5.26-0.879-7.054-2.64c-1.793-1.76-2.69-4.304-2.69-7.632v-15.648h5.43v14.016
		c0,4.704,1.971,7.056,5.915,7.056c1.874,0,3.506-0.616,4.896-1.848C429.807,206.505,430.502,204.705,430.502,202.336z"/>
	<path d="M469.093,203.632h-20.216c0.129,1.856,0.986,3.353,2.57,4.488c1.583,1.136,3.394,1.704,5.43,1.704
		c3.231,0,5.688-1.008,7.369-3.024l3.103,3.36c-2.78,2.849-6.399,4.272-10.86,4.272c-3.62,0-6.698-1.191-9.235-3.576
		c-2.538-2.384-3.806-5.584-3.806-9.6c0-4.016,1.292-7.208,3.878-9.576c2.585-2.368,5.631-3.552,9.139-3.552
		c3.506,0,6.488,1.048,8.944,3.144c2.456,2.096,3.685,4.984,3.685,8.664V203.632z M448.876,199.408h14.787
		c0-2.144-0.679-3.792-2.036-4.944s-3.03-1.728-5.018-1.728c-1.988,0-3.774,0.6-5.357,1.8
		C449.668,195.736,448.876,197.361,448.876,199.408z"/>
	<path d="M508.555,209.729c-3.135,3.136-6.756,4.704-10.859,4.704c-3.588,0-6.674-1.208-9.26-3.624
		c-2.586-2.416-3.878-5.575-3.878-9.48c0-3.903,1.349-7.08,4.048-9.528c2.698-2.448,5.987-3.672,9.866-3.672
		c3.879,0,7.158,1.328,9.842,3.984L505.113,196c-2.23-1.92-4.478-2.88-6.739-2.88c-2.263,0-4.226,0.744-5.891,2.232
		c-1.665,1.488-2.497,3.408-2.497,5.76s0.816,4.344,2.448,5.976c1.632,1.632,3.66,2.448,6.084,2.448
		c2.424,0,4.702-1.087,6.836-3.264L508.555,209.729z"/>
	<path d="M535.897,210.616c-2.586,2.544-5.817,3.816-9.696,3.816c-3.878,0-7.11-1.272-9.695-3.816
		c-2.586-2.544-3.879-5.656-3.879-9.336c0-3.679,1.293-6.792,3.879-9.336c2.585-2.544,5.817-3.816,9.695-3.816
		c3.879,0,7.11,1.272,9.696,3.816c2.585,2.544,3.878,5.657,3.878,9.336C539.775,204.96,538.482,208.072,535.897,210.616z
		 M520.359,207.304c1.535,1.553,3.482,2.328,5.842,2.328s4.307-0.775,5.842-2.328c1.535-1.552,2.303-3.56,2.303-6.024
		c0-2.464-0.768-4.471-2.303-6.024c-1.535-1.552-3.482-2.328-5.842-2.328s-4.307,0.776-5.842,2.328
		c-1.535,1.553-2.303,3.56-2.303,6.024C518.057,203.745,518.824,205.752,520.359,207.304z"/>
	<path d="M552.332,200.224v13.824h-5.43v-25.536h5.43v4.656c0.873-1.567,2.076-2.8,3.611-3.696c1.535-0.896,3.191-1.344,4.97-1.344
		c2.909,0,5.26,0.88,7.054,2.64c1.794,1.76,2.69,4.304,2.69,7.632v15.648h-5.43v-14.016c0-4.704-1.972-7.056-5.915-7.056
		c-1.874,0-3.506,0.616-4.896,1.848C553.027,196.057,552.332,197.856,552.332,200.224z"/>
	<path d="M597.562,206.417c0,2.432-0.889,4.376-2.666,5.832c-1.777,1.457-4.057,2.184-6.836,2.184c-1.875,0-3.822-0.336-5.842-1.008
		s-3.805-1.615-5.356-2.832l2.618-4.176c3.006,2.24,5.914,3.36,8.727,3.36c1.228,0,2.197-0.28,2.908-0.84
		c0.711-0.56,1.066-1.272,1.066-2.136c0-1.279-1.713-2.432-5.139-3.456c-0.26-0.096-0.453-0.16-0.582-0.192
		c-5.365-1.44-8.047-3.84-8.047-7.2c0-2.368,0.928-4.264,2.787-5.688c1.857-1.423,4.273-2.136,7.248-2.136
		c2.973,0,5.785,0.864,8.436,2.592l-2.037,3.984c-2.101-1.375-4.379-2.064-6.835-2.064c-1.293,0-2.344,0.233-3.151,0.696
		c-0.809,0.464-1.212,1.16-1.212,2.088c0,0.833,0.419,1.44,1.261,1.824c0.582,0.288,1.397,0.56,2.447,0.816
		c1.051,0.256,1.98,0.512,2.788,0.768c0.808,0.256,1.592,0.544,2.352,0.864c0.759,0.32,1.575,0.768,2.448,1.344
		C596.69,202.192,597.562,203.985,597.562,206.417z"/>
	<path d="M626.118,210.616c-2.586,2.544-5.817,3.816-9.696,3.816c-3.878,0-7.11-1.272-9.695-3.816
		c-2.586-2.544-3.879-5.656-3.879-9.336c0-3.679,1.293-6.792,3.879-9.336c2.585-2.544,5.817-3.816,9.695-3.816
		c3.879,0,7.11,1.272,9.696,3.816c2.585,2.544,3.878,5.657,3.878,9.336C629.996,204.96,628.703,208.072,626.118,210.616z
		 M610.58,207.304c1.535,1.553,3.482,2.328,5.842,2.328s4.307-0.775,5.842-2.328c1.535-1.552,2.303-3.56,2.303-6.024
		c0-2.464-0.768-4.471-2.303-6.024c-1.535-1.552-3.482-2.328-5.842-2.328s-4.307,0.776-5.842,2.328
		c-1.535,1.553-2.303,3.56-2.303,6.024C608.277,203.745,609.045,205.752,610.58,207.304z"/>
	<path d="M642.553,200.224v13.824h-5.43v-25.536h5.43v4.656c0.775-1.567,1.947-2.8,3.515-3.696c1.567-0.896,3.256-1.344,5.066-1.344
		c4.072,0,6.835,1.664,8.29,4.992c2.553-3.328,5.736-4.992,9.551-4.992c2.908,0,5.26,0.88,7.054,2.64
		c1.794,1.76,2.69,4.304,2.69,7.632v15.648h-5.43v-14.016c0-4.704-1.972-7.056-5.914-7.056c-1.843,0-3.451,0.584-4.824,1.752
		c-1.374,1.168-2.094,2.873-2.157,5.112v14.208h-5.431v-14.016c0-2.431-0.436-4.216-1.309-5.352
		c-0.872-1.135-2.246-1.704-4.121-1.704c-1.874,0-3.506,0.616-4.896,1.848C643.248,196.057,642.553,197.856,642.553,200.224z"/>
	<path d="M711.588,203.632h-20.217c0.129,1.856,0.986,3.353,2.57,4.488c1.582,1.136,3.393,1.704,5.43,1.704
		c3.23,0,5.688-1.008,7.368-3.024l3.103,3.36c-2.779,2.849-6.398,4.272-10.859,4.272c-3.62,0-6.698-1.191-9.235-3.576
		c-2.538-2.384-3.806-5.584-3.806-9.6c0-4.016,1.293-7.208,3.879-9.576c2.585-2.368,5.631-3.552,9.139-3.552
		c3.506,0,6.487,1.048,8.943,3.144c2.457,2.096,3.686,4.984,3.686,8.664V203.632z M691.371,199.408h14.787
		c0-2.144-0.68-3.792-2.037-4.944s-3.029-1.728-5.018-1.728c-1.987,0-3.773,0.6-5.357,1.8
		C692.163,195.736,691.371,197.361,691.371,199.408z"/>
	<path d="M723.805,200.224v13.824h-5.43v-25.536h5.43v4.656c0.775-1.567,1.946-2.8,3.514-3.696c1.568-0.896,3.256-1.344,5.066-1.344
		c4.072,0,6.836,1.664,8.291,4.992c2.553-3.328,5.736-4.992,9.55-4.992c2.909,0,5.261,0.88,7.054,2.64
		c1.794,1.76,2.691,4.304,2.691,7.632v15.648h-5.43v-14.016c0-4.704-1.973-7.056-5.915-7.056c-1.843,0-3.45,0.584-4.823,1.752
		c-1.375,1.168-2.094,2.873-2.158,5.112v14.208h-5.43v-14.016c0-2.431-0.436-4.216-1.309-5.352
		c-0.873-1.135-2.247-1.704-4.121-1.704c-1.875,0-3.507,0.616-4.896,1.848C724.499,196.057,723.805,197.856,723.805,200.224z"/>
	<path d="M800.158,210.616c-2.586,2.544-5.816,3.816-9.695,3.816s-7.111-1.272-9.696-3.816c-2.586-2.544-3.878-5.656-3.878-9.336
		c0-3.679,1.292-6.792,3.878-9.336c2.585-2.544,5.817-3.816,9.696-3.816s7.109,1.272,9.695,3.816s3.879,5.657,3.879,9.336
		C804.037,204.96,802.744,208.072,800.158,210.616z M784.621,207.304c1.535,1.553,3.482,2.328,5.842,2.328s4.307-0.775,5.842-2.328
		c1.535-1.552,2.303-3.56,2.303-6.024c0-2.464-0.768-4.471-2.303-6.024c-1.535-1.552-3.482-2.328-5.842-2.328
		s-4.307,0.776-5.842,2.328c-1.535,1.553-2.303,3.56-2.303,6.024C782.318,203.745,783.086,205.752,784.621,207.304z"/>
	<path d="M829.828,206.417c0,2.432-0.889,4.376-2.666,5.832c-1.777,1.457-4.057,2.184-6.836,2.184c-1.875,0-3.822-0.336-5.842-1.008
		s-3.807-1.615-5.357-2.832l2.619-4.176c3.006,2.24,5.914,3.36,8.725,3.36c1.229,0,2.199-0.28,2.91-0.84
		c0.711-0.56,1.066-1.272,1.066-2.136c0-1.279-1.713-2.432-5.139-3.456c-0.26-0.096-0.453-0.16-0.582-0.192
		c-5.365-1.44-8.049-3.84-8.049-7.2c0-2.368,0.93-4.264,2.789-5.688c1.857-1.423,4.273-2.136,7.248-2.136
		c2.973,0,5.785,0.864,8.436,2.592l-2.037,3.984c-2.102-1.375-4.379-2.064-6.836-2.064c-1.293,0-2.344,0.233-3.15,0.696
		c-0.809,0.464-1.213,1.16-1.213,2.088c0,0.833,0.42,1.44,1.262,1.824c0.58,0.288,1.396,0.56,2.447,0.816
		c1.051,0.256,1.98,0.512,2.787,0.768c0.809,0.256,1.592,0.544,2.352,0.864c0.76,0.32,1.576,0.768,2.449,1.344
		C828.955,202.192,829.828,203.985,829.828,206.417z"/>
	<path d="M157.54,270.049h-4.945v-3.408c-2.133,2.527-4.993,3.791-8.581,3.791c-2.683,0-4.905-0.751-6.666-2.256
		c-1.762-1.504-2.642-3.511-2.642-6.023c0-2.512,0.937-4.392,2.812-5.64c1.874-1.248,4.412-1.872,7.611-1.872h7.03v-0.96
		c0-3.391-1.908-5.088-5.721-5.088c-2.393,0-4.881,0.864-7.466,2.592l-2.424-3.36c3.135-2.464,6.69-3.696,10.666-3.696
		c3.038,0,5.519,0.76,7.442,2.28c1.922,1.521,2.884,3.912,2.884,7.176V270.049z M152.11,260.544v-2.16h-6.108
		c-3.911,0-5.866,1.217-5.866,3.648c0,1.248,0.485,2.201,1.455,2.856c0.97,0.656,2.319,0.984,4.048,0.984s3.24-0.48,4.533-1.44
		C151.463,263.472,152.11,262.176,152.11,260.544z"/>
	<path d="M170.92,270.049h-5.43v-35.617h5.43V270.049z"/>
	<path d="M181.1,239.448c-0.679-0.688-1.018-1.496-1.018-2.424c0-0.928,0.339-1.711,1.018-2.352c0.679-0.64,1.495-0.96,2.448-0.96
		c0.953,0,1.753,0.32,2.4,0.96c0.646,0.641,0.97,1.424,0.97,2.352c0,0.928-0.339,1.736-1.018,2.424
		c-0.679,0.688-1.479,1.032-2.4,1.032S181.779,240.137,181.1,239.448z M186.19,270.049h-5.43v-25.537h5.43V270.049z"/>
	<path d="M201.413,256.224v13.825h-5.43v-25.537h5.43v4.656c0.776-1.567,1.947-2.8,3.515-3.696c1.567-0.896,3.256-1.344,5.066-1.344
		c4.072,0,6.835,1.664,8.29,4.992c2.553-3.328,5.736-4.992,9.55-4.992c2.909,0,5.26,0.88,7.054,2.64
		c1.793,1.76,2.69,4.304,2.69,7.632v15.648h-5.43v-14.017c0-4.704-1.972-7.056-5.915-7.056c-1.842,0-3.45,0.584-4.824,1.752
		c-1.374,1.168-2.093,2.873-2.157,5.112v14.208h-5.43v-14.017c0-2.431-0.436-4.216-1.309-5.352
		c-0.873-1.135-2.247-1.704-4.121-1.704c-1.875,0-3.507,0.616-4.896,1.848C202.108,252.057,201.413,253.856,201.413,256.224z"/>
	<path d="M270.448,259.632h-20.216c0.129,1.856,0.986,3.353,2.57,4.488c1.583,1.136,3.394,1.704,5.43,1.704
		c3.231,0,5.688-1.008,7.369-3.024l3.103,3.36c-2.78,2.849-6.399,4.271-10.86,4.271c-3.62,0-6.698-1.191-9.235-3.575
		c-2.538-2.384-3.806-5.584-3.806-9.6c0-4.016,1.292-7.208,3.878-9.576c2.585-2.368,5.631-3.552,9.139-3.552
		c3.506,0,6.488,1.048,8.944,3.144c2.456,2.096,3.685,4.984,3.685,8.664V259.632z M250.232,255.408h14.787
		c0-2.144-0.679-3.792-2.036-4.944s-3.03-1.728-5.018-1.728c-1.988,0-3.774,0.6-5.357,1.8
		C251.024,251.736,250.232,253.361,250.232,255.408z"/>
	<path d="M282.665,256.224v13.825h-5.43v-25.537h5.43v4.656c0.873-1.567,2.076-2.8,3.612-3.696c1.535-0.896,3.191-1.344,4.969-1.344
		c2.909,0,5.26,0.88,7.054,2.64c1.794,1.76,2.69,4.304,2.69,7.632v15.648h-5.43v-14.017c0-4.704-1.972-7.056-5.915-7.056
		c-1.875,0-3.507,0.616-4.896,1.848C283.36,252.057,282.665,253.856,282.665,256.224z"/>
	<path d="M316.212,248.833v12.576c0,1.217,0.323,2.184,0.97,2.904c0.646,0.72,1.551,1.08,2.715,1.08s2.278-0.56,3.345-1.68
		l2.23,3.792c-1.907,1.697-4.016,2.545-6.327,2.545c-2.311,0-4.283-0.793-5.915-2.377c-1.632-1.584-2.448-3.72-2.448-6.408v-12.432
		h-3.248v-4.32h3.248v-8.016h5.43v8.016H323v4.32H316.212z"/>
	<path d="M351.36,266.616c-2.586,2.544-5.817,3.815-9.696,3.815s-7.111-1.271-9.696-3.815c-2.586-2.544-3.878-5.656-3.878-9.336
		c0-3.679,1.292-6.792,3.878-9.336c2.585-2.544,5.818-3.816,9.696-3.816s7.11,1.272,9.696,3.816
		c2.585,2.544,3.878,5.657,3.878,9.336C355.238,260.96,353.945,264.072,351.36,266.616z M335.822,263.304
		c1.535,1.553,3.482,2.328,5.842,2.328c2.359,0,4.306-0.775,5.842-2.328c1.535-1.552,2.303-3.56,2.303-6.024
		c0-2.464-0.768-4.471-2.303-6.024c-1.536-1.552-3.483-2.328-5.842-2.328c-2.36,0-4.307,0.776-5.842,2.328
		c-1.536,1.553-2.303,3.56-2.303,6.024C333.52,259.745,334.287,261.752,335.822,263.304z"/>
	<path d="M381.029,262.417c0,2.432-0.889,4.376-2.666,5.832c-1.778,1.457-4.057,2.184-6.836,2.184c-1.875,0-3.822-0.336-5.842-1.008
		c-2.02-0.672-3.806-1.615-5.357-2.832l2.618-4.175c3.006,2.24,5.915,3.36,8.727,3.36c1.228,0,2.197-0.28,2.909-0.84
		c0.71-0.56,1.066-1.272,1.066-2.136c0-1.279-1.713-2.432-5.139-3.456c-0.259-0.096-0.453-0.16-0.582-0.192
		c-5.366-1.44-8.048-3.84-8.048-7.2c0-2.368,0.929-4.264,2.788-5.688c1.858-1.423,4.274-2.136,7.248-2.136
		c2.973,0,5.785,0.864,8.436,2.592l-2.036,3.984c-2.101-1.375-4.38-2.064-6.835-2.064c-1.293,0-2.344,0.233-3.151,0.696
		c-0.808,0.464-1.212,1.16-1.212,2.088c0,0.833,0.419,1.44,1.26,1.824c0.582,0.288,1.398,0.56,2.448,0.816
		c1.05,0.256,1.979,0.512,2.788,0.768c0.808,0.256,1.592,0.544,2.352,0.864c0.759,0.32,1.576,0.768,2.448,1.344
		C380.157,258.192,381.029,259.985,381.029,262.417z"/>
	<path d="M386.265,275.088l1.794-4.992c-1.326-0.607-1.988-1.663-1.988-3.168c0-1.023,0.355-1.879,1.066-2.567
		c0.71-0.688,1.551-1.032,2.521-1.032s1.818,0.344,2.545,1.032c0.727,0.688,1.091,1.512,1.091,2.472
		c0,0.961-0.437,2.129-1.309,3.504l-2.909,4.752H386.265z"/>
	<path d="M414.917,256.224v13.825h-5.43v-25.537h5.43v4.656c0.776-1.567,1.947-2.8,3.515-3.696c1.567-0.896,3.256-1.344,5.066-1.344
		c4.072,0,6.835,1.664,8.29,4.992c2.553-3.328,5.736-4.992,9.55-4.992c2.909,0,5.26,0.88,7.054,2.64
		c1.793,1.76,2.69,4.304,2.69,7.632v15.648h-5.43v-14.017c0-4.704-1.972-7.056-5.915-7.056c-1.842,0-3.45,0.584-4.824,1.752
		c-1.374,1.168-2.093,2.873-2.157,5.112v14.208h-5.43v-14.017c0-2.431-0.436-4.216-1.309-5.352
		c-0.873-1.135-2.247-1.704-4.121-1.704c-1.875,0-3.507,0.616-4.896,1.848C415.611,252.057,414.917,253.856,414.917,256.224z"/>
	<path d="M481.139,270.049h-4.945v-3.408c-2.133,2.527-4.993,3.791-8.581,3.791c-2.683,0-4.905-0.751-6.666-2.256
		c-1.762-1.504-2.642-3.511-2.642-6.023c0-2.512,0.937-4.392,2.812-5.64c1.874-1.248,4.412-1.872,7.611-1.872h7.03v-0.96
		c0-3.391-1.908-5.088-5.721-5.088c-2.393,0-4.881,0.864-7.466,2.592l-2.424-3.36c3.135-2.464,6.69-3.696,10.666-3.696
		c3.038,0,5.519,0.76,7.442,2.28c1.922,1.521,2.884,3.912,2.884,7.176V270.049z M475.709,260.544v-2.16h-6.108
		c-3.911,0-5.866,1.217-5.866,3.648c0,1.248,0.485,2.201,1.455,2.856c0.97,0.656,2.319,0.984,4.048,0.984s3.24-0.48,4.533-1.44
		C475.062,263.472,475.709,262.176,475.709,260.544z"/>
	<path d="M507.754,262.417c0,2.432-0.889,4.376-2.666,5.832c-1.777,1.457-4.057,2.184-6.835,2.184c-1.875,0-3.822-0.336-5.842-1.008
		c-2.02-0.672-3.806-1.615-5.357-2.832l2.618-4.175c3.006,2.24,5.915,3.36,8.727,3.36c1.228,0,2.197-0.28,2.909-0.84
		c0.711-0.56,1.066-1.272,1.066-2.136c0-1.279-1.713-2.432-5.139-3.456c-0.259-0.096-0.453-0.16-0.582-0.192
		c-5.366-1.44-8.048-3.84-8.048-7.2c0-2.368,0.929-4.264,2.788-5.688c1.858-1.423,4.274-2.136,7.248-2.136
		c2.973,0,5.786,0.864,8.436,2.592l-2.037,3.984c-2.101-1.375-4.379-2.064-6.835-2.064c-1.293,0-2.344,0.233-3.151,0.696
		c-0.808,0.464-1.212,1.16-1.212,2.088c0,0.833,0.419,1.44,1.26,1.824c0.582,0.288,1.398,0.56,2.448,0.816
		c1.05,0.256,1.979,0.512,2.788,0.768c0.808,0.256,1.592,0.544,2.352,0.864c0.759,0.32,1.575,0.768,2.448,1.344
		C506.882,258.192,507.754,259.985,507.754,262.417z"/>
	<path d="M532.139,248.833v12.576c0,1.217,0.323,2.184,0.971,2.904c0.646,0.72,1.551,1.08,2.715,1.08c1.163,0,2.277-0.56,3.345-1.68
		l2.229,3.792c-1.906,1.697-4.016,2.545-6.326,2.545s-4.283-0.793-5.914-2.377c-1.633-1.584-2.449-3.72-2.449-6.408v-12.432h-3.248
		v-4.32h3.248v-8.016h5.43v8.016h6.787v4.32H532.139z"/>
	<path d="M567.335,270.049h-4.944v-3.408c-2.133,2.527-4.994,3.791-8.582,3.791c-2.683,0-4.904-0.751-6.666-2.256
		c-1.762-1.504-2.642-3.511-2.642-6.023c0-2.512,0.937-4.392,2.812-5.64s4.412-1.872,7.611-1.872h7.03v-0.96
		c0-3.391-1.907-5.088-5.721-5.088c-2.393,0-4.881,0.864-7.466,2.592l-2.424-3.36c3.135-2.464,6.689-3.696,10.665-3.696
		c3.038,0,5.519,0.76,7.442,2.28c1.922,1.521,2.884,3.912,2.884,7.176V270.049z M561.905,260.544v-2.16h-6.108
		c-3.911,0-5.866,1.217-5.866,3.648c0,1.248,0.485,2.201,1.454,2.856c0.971,0.656,2.319,0.984,4.049,0.984
		c1.729,0,3.24-0.48,4.533-1.44C561.258,263.472,561.905,262.176,561.905,260.544z"/>
	<path d="M580.716,256.224v13.825h-5.43v-25.537h5.43v4.656c0.776-1.567,1.946-2.8,3.515-3.696c1.567-0.896,3.256-1.344,5.066-1.344
		c4.072,0,6.836,1.664,8.29,4.992c2.553-3.328,5.736-4.992,9.55-4.992c2.91,0,5.261,0.88,7.055,2.64
		c1.793,1.76,2.69,4.304,2.69,7.632v15.648h-5.43v-14.017c0-4.704-1.972-7.056-5.915-7.056c-1.842,0-3.449,0.584-4.823,1.752
		c-1.374,1.168-2.093,2.873-2.157,5.112v14.208h-5.43v-14.017c0-2.431-0.437-4.216-1.309-5.352
		c-0.873-1.135-2.248-1.704-4.121-1.704c-1.875,0-3.508,0.616-4.896,1.848C581.41,252.057,580.716,253.856,580.716,256.224z"/>
	<path d="M639.376,244.128c3.458,0,6.415,1.184,8.872,3.552c2.455,2.369,3.684,5.52,3.684,9.456s-1.22,7.136-3.66,9.6
		c-2.44,2.465-5.283,3.695-8.532,3.695c-3.248,0-6.165-1.407-8.751-4.223v3.84h-5.43v-35.617h5.43v14.544
		C633.122,245.745,635.917,244.128,639.376,244.128z M630.892,257.328c0,2.433,0.743,4.424,2.23,5.976
		c1.485,1.553,3.296,2.328,5.43,2.328c2.133,0,3.991-0.768,5.575-2.304c1.583-1.536,2.375-3.528,2.375-5.976
		c0-2.448-0.775-4.48-2.326-6.096c-1.552-1.616-3.41-2.424-5.576-2.424c-2.165,0-3.992,0.808-5.478,2.424
		C631.635,252.873,630.892,254.897,630.892,257.328z"/>
	<path d="M682.619,259.632h-20.216c0.128,1.856,0.985,3.353,2.569,4.488c1.583,1.136,3.394,1.704,5.43,1.704
		c3.231,0,5.688-1.008,7.369-3.024l3.103,3.36c-2.78,2.849-6.399,4.271-10.859,4.271c-3.62,0-6.698-1.191-9.235-3.575
		c-2.538-2.384-3.807-5.584-3.807-9.6c0-4.016,1.293-7.208,3.879-9.576c2.586-2.368,5.631-3.552,9.139-3.552
		c3.506,0,6.488,1.048,8.944,3.144c2.456,2.096,3.685,4.984,3.685,8.664V259.632z M662.403,255.408h14.786
		c0-2.144-0.679-3.792-2.036-4.944s-3.03-1.728-5.018-1.728s-3.774,0.6-5.356,1.8C663.195,251.736,662.403,253.361,662.403,255.408z
		 M672.293,241.152h-4.945l5.139-6.96l5.721,2.352L672.293,241.152z"/>
	<path d="M694.303,256.224v13.825h-5.43v-25.537h5.43v4.656c0.775-1.567,1.947-2.8,3.515-3.696c1.567-0.896,3.256-1.344,5.066-1.344
		c4.072,0,6.835,1.664,8.29,4.992c2.553-3.328,5.736-4.992,9.551-4.992c2.908,0,5.26,0.88,7.054,2.64
		c1.794,1.76,2.69,4.304,2.69,7.632v15.648h-5.43v-14.017c0-4.704-1.972-7.056-5.914-7.056c-1.843,0-3.451,0.584-4.824,1.752
		c-1.374,1.168-2.094,2.873-2.157,5.112v14.208h-5.431v-14.017c0-2.431-0.436-4.216-1.309-5.352
		c-0.872-1.135-2.246-1.704-4.121-1.704c-1.874,0-3.506,0.616-4.896,1.848C694.998,252.057,694.303,253.856,694.303,256.224z"/>
	<path d="M750.877,266.784c-2.424-2.431-3.636-5.631-3.636-9.6c0-3.968,1.244-7.136,3.733-9.504
		c2.488-2.368,5.453-3.552,8.896-3.552c3.441,0,6.213,1.44,8.313,4.32v-14.016h5.431v35.617h-5.431v-3.84
		c-2.004,2.815-4.929,4.223-8.774,4.223C756.145,270.432,753.301,269.217,750.877,266.784z M752.672,257.4
		c0,2.448,0.791,4.44,2.375,5.976c1.583,1.536,3.441,2.304,5.575,2.304c2.133,0,3.942-0.775,5.43-2.328
		c1.486-1.552,2.229-3.544,2.229-5.976c0-2.432-0.743-4.464-2.229-6.096c-1.487-1.632-3.313-2.448-5.479-2.448
		s-4.023,0.816-5.575,2.448C753.447,252.912,752.672,254.952,752.672,257.4z"/>
	<path d="M803.865,266.616c-2.586,2.544-5.816,3.815-9.695,3.815s-7.111-1.271-9.696-3.815c-2.586-2.544-3.878-5.656-3.878-9.336
		c0-3.679,1.292-6.792,3.878-9.336c2.585-2.544,5.817-3.816,9.696-3.816s7.109,1.272,9.695,3.816s3.879,5.657,3.879,9.336
		C807.744,260.96,806.451,264.072,803.865,266.616z M788.328,263.304c1.535,1.553,3.482,2.328,5.842,2.328s4.307-0.775,5.842-2.328
		c1.535-1.552,2.303-3.56,2.303-6.024c0-2.464-0.768-4.471-2.303-6.024c-1.535-1.552-3.482-2.328-5.842-2.328
		s-4.307,0.776-5.842,2.328c-1.535,1.553-2.303,3.56-2.303,6.024C786.025,259.745,786.793,261.752,788.328,263.304z"/>
	<path d="M833.536,262.417c0,2.432-0.89,4.376-2.667,5.832c-1.777,1.457-4.056,2.184-6.835,2.184c-1.875,0-3.823-0.336-5.843-1.008
		s-3.806-1.615-5.356-2.832l2.618-4.175c3.006,2.24,5.914,3.36,8.726,3.36c1.229,0,2.198-0.28,2.909-0.84
		c0.711-0.56,1.066-1.272,1.066-2.136c0-1.279-1.713-2.432-5.139-3.456c-0.259-0.096-0.453-0.16-0.582-0.192
		c-5.365-1.44-8.048-3.84-8.048-7.2c0-2.368,0.929-4.264,2.788-5.688c1.858-1.423,4.273-2.136,7.248-2.136
		c2.973,0,5.785,0.864,8.436,2.592l-2.036,3.984c-2.102-1.375-4.38-2.064-6.836-2.064c-1.293,0-2.344,0.233-3.151,0.696
		c-0.809,0.464-1.212,1.16-1.212,2.088c0,0.833,0.42,1.44,1.261,1.824c0.581,0.288,1.397,0.56,2.448,0.816
		c1.05,0.256,1.979,0.512,2.787,0.768c0.808,0.256,1.592,0.544,2.352,0.864c0.759,0.32,1.575,0.768,2.448,1.344
		C832.663,258.192,833.536,259.985,833.536,262.417z"/>
	<path d="M127.628,300.129c3.458,0,6.415,1.184,8.872,3.551c2.456,2.369,3.685,5.521,3.685,9.457c0,3.936-1.22,7.136-3.66,9.6
		c-2.441,2.465-5.284,3.695-8.533,3.695c-3.248,0-6.165-1.407-8.75-4.223v13.151h-5.43v-34.849h5.43v4.465
		C121.374,301.744,124.169,300.129,127.628,300.129z M119.144,313.328c0,2.433,0.743,4.424,2.23,5.977
		c1.486,1.553,3.296,2.328,5.43,2.328c2.133,0,3.991-0.769,5.575-2.305c1.583-1.535,2.375-3.527,2.375-5.976
		s-0.776-4.479-2.327-6.097c-1.551-1.615-3.41-2.424-5.575-2.424c-2.166,0-3.992,0.809-5.478,2.424
		C119.887,308.873,119.144,310.896,119.144,313.328z"/>
	<path d="M160.933,300.129l0.049,5.424c-0.097,0-0.194,0-0.291,0c-2.683,0-4.703,0.863-6.06,2.592s-2.036,4.049-2.036,6.96v10.944
		h-5.43v-25.537h5.43v5.137c0.873-1.6,2.061-2.912,3.563-3.936C157.66,300.688,159.252,300.16,160.933,300.129z"/>
	<path d="M189.245,322.616c-2.586,2.544-5.817,3.815-9.696,3.815s-7.111-1.271-9.696-3.815c-2.586-2.544-3.878-5.655-3.878-9.336
		c0-3.679,1.292-6.792,3.878-9.336c2.585-2.544,5.818-3.815,9.696-3.815s7.11,1.271,9.696,3.815
		c2.585,2.544,3.878,5.657,3.878,9.336C193.123,316.961,191.83,320.072,189.245,322.616z M173.707,319.305
		c1.535,1.553,3.482,2.328,5.842,2.328c2.359,0,4.306-0.775,5.842-2.328c1.535-1.553,2.303-3.561,2.303-6.024
		s-0.768-4.472-2.303-6.024c-1.536-1.551-3.483-2.328-5.842-2.328c-2.36,0-4.307,0.777-5.842,2.328
		c-1.536,1.553-2.303,3.561-2.303,6.024S172.171,317.752,173.707,319.305z"/>
	<path d="M201.801,322.784c-2.424-2.431-3.636-5.632-3.636-9.6s1.244-7.136,3.733-9.505c2.488-2.367,5.454-3.551,8.896-3.551
		c3.442,0,6.213,1.439,8.314,4.319v-14.017h5.43v35.617h-5.43v-3.84c-2.004,2.815-4.929,4.223-8.774,4.223
		C207.068,326.432,204.225,325.217,201.801,322.784z M203.595,313.4c0,2.447,0.792,4.439,2.375,5.977
		c1.583,1.535,3.442,2.303,5.575,2.303c2.133,0,3.943-0.775,5.43-2.327c1.486-1.552,2.23-3.544,2.23-5.976s-0.744-4.465-2.23-6.097
		c-1.487-1.632-3.313-2.448-5.479-2.448c-2.166,0-4.023,0.816-5.575,2.448C204.37,308.912,203.595,310.952,203.595,313.4z"/>
	<path d="M250.959,314.336v-13.824h5.43v25.537h-5.43v-4.656c-0.873,1.568-2.077,2.801-3.611,3.695
		c-1.536,0.896-3.192,1.344-4.969,1.344c-2.909,0-5.26-0.879-7.054-2.639c-1.793-1.76-2.69-4.305-2.69-7.633v-15.648h5.43v14.017
		c0,4.704,1.971,7.056,5.915,7.056c1.874,0,3.506-0.615,4.896-1.848C250.264,318.505,250.959,316.705,250.959,314.336z"/>
	<path d="M272.339,304.832v12.576c0,1.217,0.323,2.184,0.97,2.904c0.646,0.72,1.551,1.08,2.715,1.08s2.278-0.56,3.345-1.68
		l2.23,3.791c-1.907,1.697-4.016,2.545-6.327,2.545c-2.311,0-4.283-0.793-5.915-2.377c-1.632-1.584-2.448-3.72-2.448-6.408v-12.432
		h-3.248v-4.32h3.248v-8.016h5.43v8.016h6.787v4.32H272.339z"/>
	<path d="M307.486,322.616c-2.586,2.544-5.817,3.815-9.696,3.815s-7.111-1.271-9.696-3.815c-2.586-2.544-3.878-5.655-3.878-9.336
		c0-3.679,1.292-6.792,3.878-9.336c2.585-2.544,5.818-3.815,9.696-3.815s7.11,1.271,9.696,3.815
		c2.585,2.544,3.878,5.657,3.878,9.336C311.365,316.961,310.072,320.072,307.486,322.616z M291.949,319.305
		c1.535,1.553,3.482,2.328,5.842,2.328c2.359,0,4.306-0.775,5.842-2.328c1.535-1.553,2.303-3.561,2.303-6.024
		s-0.768-4.472-2.303-6.024c-1.536-1.551-3.483-2.328-5.842-2.328c-2.36,0-4.307,0.777-5.842,2.328
		c-1.536,1.553-2.303,3.561-2.303,6.024S290.413,317.752,291.949,319.305z"/>
	<path d="M332.259,300.129l0.049,5.424c-0.097,0-0.194,0-0.291,0c-2.683,0-4.703,0.863-6.06,2.592s-2.036,4.049-2.036,6.96v10.944
		h-5.43v-25.537h5.43v5.137c0.873-1.6,2.061-2.912,3.563-3.936C328.987,300.688,330.579,300.16,332.259,300.129z"/>
	<path d="M363.432,315.633h-20.216c0.129,1.855,0.986,3.352,2.57,4.487c1.583,1.136,3.394,1.704,5.43,1.704
		c3.231,0,5.688-1.008,7.369-3.023l3.103,3.359c-2.78,2.849-6.399,4.271-10.86,4.271c-3.62,0-6.698-1.191-9.235-3.575
		c-2.538-2.384-3.806-5.584-3.806-9.601c0-4.016,1.292-7.207,3.878-9.576c2.585-2.367,5.631-3.551,9.139-3.551
		c3.506,0,6.488,1.048,8.944,3.144c2.456,2.097,3.685,4.984,3.685,8.664V315.633z M343.215,311.408h14.787
		c0-2.144-0.679-3.792-2.036-4.943c-1.357-1.152-3.03-1.729-5.018-1.729c-1.988,0-3.774,0.6-5.357,1.8
		S343.215,309.361,343.215,311.408z"/>
	<path d="M388.883,318.416c0,2.433-0.889,4.377-2.666,5.832c-1.778,1.457-4.057,2.184-6.836,2.184c-1.875,0-3.822-0.336-5.842-1.008
		c-2.02-0.672-3.806-1.615-5.357-2.832l2.618-4.176c3.006,2.24,5.915,3.36,8.727,3.36c1.228,0,2.197-0.28,2.909-0.84
		c0.71-0.56,1.066-1.272,1.066-2.136c0-1.279-1.713-2.432-5.139-3.457c-0.259-0.096-0.453-0.159-0.582-0.191
		c-5.366-1.439-8.048-3.84-8.048-7.2c0-2.368,0.929-4.264,2.788-5.688c1.858-1.423,4.274-2.135,7.248-2.135
		c2.973,0,5.785,0.863,8.436,2.592l-2.036,3.983c-2.101-1.376-4.38-2.063-6.835-2.063c-1.293,0-2.344,0.232-3.151,0.695
		c-0.808,0.465-1.212,1.16-1.212,2.088c0,0.833,0.419,1.44,1.26,1.824c0.582,0.288,1.398,0.561,2.448,0.816s1.979,0.512,2.788,0.768
		c0.808,0.257,1.592,0.545,2.352,0.864c0.759,0.32,1.576,0.769,2.448,1.345C388.011,314.192,388.883,315.984,388.883,318.416z"/>
	<path d="M394.119,331.088l1.794-4.992c-1.326-0.607-1.988-1.663-1.988-3.168c0-1.023,0.355-1.879,1.066-2.567
		c0.71-0.688,1.551-1.032,2.521-1.032s1.818,0.344,2.545,1.032c0.727,0.688,1.091,1.513,1.091,2.472
		c0,0.961-0.437,2.129-1.309,3.504l-2.909,4.752H394.119z"/>
	<path d="M427.4,326.432c-3.248,0-6.093-1.23-8.533-3.695c-2.44-2.464-3.66-5.664-3.66-9.6c0-3.937,1.228-7.088,3.685-9.457
		c2.456-2.367,5.413-3.551,8.872-3.551c3.458,0,6.254,1.615,8.387,4.848v-4.465h5.43v34.849h-5.43v-13.151
		C433.565,325.024,430.648,326.432,427.4,326.432z M420.637,313.353c0,2.448,0.792,4.44,2.375,5.976
		c1.583,1.536,3.442,2.305,5.575,2.305c2.133,0,3.943-0.775,5.43-2.328c1.486-1.553,2.23-3.544,2.23-5.977
		c0-2.432-0.744-4.455-2.23-6.072c-1.487-1.615-3.313-2.424-5.479-2.424c-2.166,0-4.024,0.809-5.575,2.424
		C421.413,308.873,420.637,310.904,420.637,313.353z"/>
	<path d="M468.001,314.336v-13.824h5.43v25.537h-5.43v-4.656c-0.873,1.568-2.077,2.801-3.611,3.695
		c-1.536,0.896-3.192,1.344-4.969,1.344c-2.909,0-5.26-0.879-7.054-2.639c-1.793-1.76-2.69-4.305-2.69-7.633v-15.648h5.43v14.017
		c0,4.704,1.971,7.056,5.915,7.056c1.874,0,3.506-0.615,4.896-1.848C467.306,318.505,468.001,316.705,468.001,314.336z"/>
	<path d="M506.592,315.633h-20.217c0.129,1.855,0.986,3.352,2.57,4.487c1.583,1.136,3.394,1.704,5.43,1.704
		c3.231,0,5.688-1.008,7.369-3.023l3.103,3.359c-2.779,2.849-6.399,4.271-10.859,4.271c-3.62,0-6.698-1.191-9.235-3.575
		c-2.538-2.384-3.806-5.584-3.806-9.601c0-4.016,1.292-7.207,3.878-9.576c2.585-2.367,5.631-3.551,9.139-3.551
		c3.506,0,6.488,1.048,8.944,3.144c2.457,2.097,3.686,4.984,3.686,8.664V315.633z M486.375,311.408h14.787
		c0-2.144-0.679-3.792-2.037-4.943c-1.357-1.152-3.03-1.729-5.018-1.729c-1.988,0-3.774,0.6-5.357,1.8
		S486.375,309.361,486.375,311.408z"/>
	<path d="M528.988,312.225v13.824h-5.43v-25.537h5.43v4.656c0.873-1.566,2.076-2.799,3.611-3.695s3.191-1.344,4.97-1.344
		c2.909,0,5.26,0.88,7.054,2.64c1.794,1.761,2.69,4.304,2.69,7.632v15.648h-5.43v-14.017c0-4.704-1.972-7.056-5.915-7.056
		c-1.874,0-3.506,0.616-4.896,1.848C529.684,308.057,528.988,309.856,528.988,312.225z"/>
	<path d="M576.935,326.049h-4.944v-3.408c-2.133,2.527-4.994,3.791-8.582,3.791c-2.683,0-4.904-0.751-6.666-2.256
		c-1.762-1.504-2.642-3.511-2.642-6.023c0-2.512,0.937-4.393,2.812-5.641s4.412-1.871,7.611-1.871h7.03v-0.961
		c0-3.391-1.907-5.088-5.721-5.088c-2.393,0-4.881,0.865-7.466,2.593l-2.424-3.36c3.135-2.464,6.689-3.695,10.665-3.695
		c3.038,0,5.519,0.76,7.442,2.279c1.922,1.521,2.884,3.912,2.884,7.176V326.049z M573.444,291.776c0,1.792-0.405,3.177-1.212,4.151
		c-0.809,0.977-1.859,1.465-3.151,1.465c-0.776,0-1.454-0.12-2.036-0.36c-0.582-0.239-1.455-0.728-2.618-1.464
		c-0.679-0.384-1.229-0.576-1.647-0.576c-0.906,0-1.439,0.752-1.601,2.256h-3.2c0-1.76,0.404-3.127,1.213-4.104
		c0.807-0.977,1.857-1.465,3.15-1.465c0.744,0,1.406,0.121,1.988,0.361c0.582,0.239,1.471,0.728,2.666,1.463
		c0.711,0.385,1.244,0.576,1.6,0.576c0.938,0,1.486-0.768,1.648-2.304H573.444z M571.505,316.545v-2.16h-6.108
		c-3.911,0-5.866,1.217-5.866,3.647c0,1.248,0.485,2.2,1.454,2.856c0.971,0.656,2.319,0.984,4.049,0.984
		c1.729,0,3.24-0.48,4.533-1.441C570.857,319.473,571.505,318.176,571.505,316.545z"/>
	<path d="M606.701,322.616c-2.586,2.544-5.817,3.815-9.695,3.815c-3.879,0-7.111-1.271-9.697-3.815s-3.878-5.655-3.878-9.336
		c0-3.679,1.292-6.792,3.878-9.336s5.818-3.815,9.697-3.815c3.878,0,7.109,1.271,9.695,3.815s3.879,5.657,3.879,9.336
		C610.58,316.961,609.287,320.072,606.701,322.616z M591.164,319.305c1.534,1.553,3.481,2.328,5.842,2.328
		c2.358,0,4.306-0.775,5.842-2.328c1.534-1.553,2.303-3.561,2.303-6.024s-0.769-4.472-2.303-6.024
		c-1.536-1.551-3.483-2.328-5.842-2.328c-2.36,0-4.308,0.777-5.842,2.328c-1.536,1.553-2.303,3.561-2.303,6.024
		S589.628,317.752,591.164,319.305z"/>
	<path d="M641.703,300.129c3.458,0,6.415,1.184,8.871,3.551c2.457,2.369,3.686,5.521,3.686,9.457c0,3.936-1.221,7.136-3.66,9.6
		c-2.441,2.465-5.285,3.695-8.533,3.695s-6.165-1.407-8.75-4.223v13.151h-5.43v-34.849h5.43v4.465
		C635.449,301.744,638.244,300.129,641.703,300.129z M633.219,313.328c0,2.433,0.743,4.424,2.23,5.977
		c1.486,1.553,3.297,2.328,5.43,2.328s3.991-0.769,5.575-2.305c1.583-1.535,2.376-3.527,2.376-5.976s-0.776-4.479-2.328-6.097
		c-1.551-1.615-3.41-2.424-5.574-2.424c-2.166,0-3.992,0.809-5.479,2.424C633.962,308.873,633.219,310.896,633.219,313.328z"/>
	<path d="M675.008,300.129l0.049,5.424c-0.098,0-0.194,0-0.291,0c-2.684,0-4.703,0.863-6.061,2.592s-2.035,4.049-2.035,6.96v10.944
		h-5.43v-25.537h5.43v5.137c0.872-1.6,2.061-2.912,3.562-3.936C671.735,300.688,673.327,300.16,675.008,300.129z"/>
	<path d="M706.18,315.633h-20.216c0.129,1.855,0.985,3.352,2.569,4.487s3.395,1.704,5.43,1.704c3.232,0,5.688-1.008,7.369-3.023
		l3.104,3.359c-2.781,2.849-6.4,4.271-10.86,4.271c-3.62,0-6.698-1.191-9.235-3.575s-3.806-5.584-3.806-9.601
		c0-4.016,1.292-7.207,3.878-9.576c2.586-2.367,5.632-3.551,9.139-3.551s6.488,1.048,8.945,3.144
		c2.455,2.097,3.684,4.984,3.684,8.664V315.633z M685.964,311.408h14.786c0-2.144-0.678-3.792-2.035-4.943
		c-1.357-1.152-3.031-1.729-5.018-1.729c-1.988,0-3.774,0.6-5.357,1.8C686.756,307.736,685.964,309.361,685.964,311.408z"/>
	<path d="M735.462,321.729c-3.136,3.137-6.755,4.703-10.859,4.703c-3.588,0-6.675-1.207-9.26-3.623
		c-2.586-2.416-3.878-5.576-3.878-9.48c0-3.903,1.349-7.08,4.047-9.527c2.699-2.448,5.988-3.672,9.866-3.672
		s7.159,1.328,9.842,3.983l-3.2,3.888c-2.23-1.92-4.477-2.88-6.738-2.88c-2.263,0-4.227,0.744-5.891,2.232
		c-1.665,1.487-2.496,3.407-2.496,5.76s0.815,4.345,2.447,5.976c1.633,1.633,3.66,2.448,6.085,2.448
		c2.424,0,4.702-1.087,6.835-3.264L735.462,321.729z"/>
	<path d="M742.734,295.448c-0.679-0.688-1.018-1.495-1.018-2.424c0-0.928,0.339-1.712,1.018-2.353
		c0.679-0.639,1.494-0.959,2.448-0.959c0.953,0,1.753,0.32,2.399,0.959c0.646,0.641,0.971,1.425,0.971,2.353
		c0,0.929-0.34,1.736-1.019,2.424c-0.679,0.688-1.479,1.032-2.399,1.032C744.213,296.48,743.413,296.137,742.734,295.448z
		 M747.824,326.049h-5.43v-25.537h5.43V326.049z"/>
	<path d="M776.282,318.416c0,2.433-0.89,4.377-2.666,5.832c-1.778,1.457-4.057,2.184-6.836,2.184c-1.875,0-3.822-0.336-5.842-1.008
		c-2.021-0.672-3.806-1.615-5.356-2.832l2.617-4.176c3.006,2.24,5.914,3.36,8.727,3.36c1.229,0,2.197-0.28,2.908-0.84
		s1.066-1.272,1.066-2.136c0-1.279-1.713-2.432-5.139-3.457c-0.259-0.096-0.453-0.159-0.581-0.191
		c-5.366-1.439-8.048-3.84-8.048-7.2c0-2.368,0.929-4.264,2.787-5.688c1.858-1.423,4.274-2.135,7.248-2.135
		c2.973,0,5.785,0.863,8.436,2.592l-2.036,3.983c-2.101-1.376-4.38-2.063-6.835-2.063c-1.293,0-2.344,0.232-3.152,0.695
		c-0.808,0.465-1.211,1.16-1.211,2.088c0,0.833,0.419,1.44,1.26,1.824c0.582,0.288,1.398,0.561,2.448,0.816s1.979,0.512,2.788,0.768
		c0.807,0.257,1.592,0.545,2.352,0.864c0.758,0.32,1.575,0.769,2.447,1.345C775.41,314.192,776.282,315.984,776.282,318.416z"/>
	<path d="M804.885,326.049h-4.944v-3.408c-2.133,2.527-4.993,3.791-8.581,3.791c-2.684,0-4.904-0.751-6.666-2.256
		c-1.762-1.504-2.643-3.511-2.643-6.023c0-2.512,0.938-4.393,2.812-5.641c1.874-1.248,4.412-1.871,7.611-1.871h7.029v-0.961
		c0-3.391-1.907-5.088-5.721-5.088c-2.393,0-4.881,0.865-7.466,2.593l-2.424-3.36c3.135-2.464,6.69-3.695,10.665-3.695
		c3.038,0,5.52,0.76,7.442,2.279c1.923,1.521,2.884,3.912,2.884,7.176V326.049z M799.455,316.545v-2.16h-6.107
		c-3.912,0-5.867,1.217-5.867,3.647c0,1.248,0.485,2.2,1.455,2.856s2.318,0.984,4.048,0.984s3.24-0.48,4.533-1.441
		C798.809,319.473,799.455,318.176,799.455,316.545z"/>
	<path d="M818.266,312.225v13.824h-5.43v-25.537h5.43v4.656c0.775-1.566,1.946-2.799,3.515-3.695
		c1.567-0.896,3.256-1.344,5.066-1.344c4.072,0,6.836,1.664,8.29,4.991c2.553-3.327,5.736-4.991,9.551-4.991
		c2.908,0,5.26,0.88,7.054,2.64c1.794,1.761,2.69,4.304,2.69,7.632v15.648h-5.43v-14.017c0-4.704-1.972-7.056-5.915-7.056
		c-1.842,0-3.45,0.584-4.823,1.752c-1.374,1.168-2.093,2.873-2.157,5.111v14.209h-5.43v-14.017c0-2.431-0.437-4.216-1.31-5.353
		c-0.872-1.135-2.246-1.703-4.12-1.703c-1.875,0-3.508,0.616-4.896,1.848C818.96,308.057,818.266,309.856,818.266,312.225z"/>
	<path d="M106.976,368.225v13.824h-5.43v-25.537h5.43v4.656c0.776-1.566,1.947-2.799,3.515-3.695
		c1.567-0.896,3.256-1.344,5.066-1.344c4.072,0,6.835,1.664,8.29,4.991c2.553-3.327,5.736-4.991,9.55-4.991
		c2.909,0,5.26,0.88,7.054,2.64c1.793,1.761,2.69,4.304,2.69,7.632v15.648h-5.43v-14.017c0-4.704-1.972-7.056-5.915-7.056
		c-1.842,0-3.45,0.584-4.824,1.752c-1.374,1.168-2.093,2.873-2.157,5.111v14.209h-5.43v-14.017c0-2.431-0.436-4.216-1.309-5.353
		c-0.873-1.135-2.247-1.703-4.121-1.703c-1.875,0-3.507,0.616-4.896,1.848C107.671,364.057,106.976,365.856,106.976,368.225z"/>
	<path d="M173.199,382.049h-4.945v-3.408c-2.133,2.527-4.993,3.791-8.581,3.791c-2.683,0-4.905-0.751-6.666-2.256
		c-1.762-1.504-2.642-3.511-2.642-6.023c0-2.512,0.937-4.393,2.812-5.641c1.874-1.248,4.412-1.871,7.611-1.871h7.03v-0.961
		c0-3.391-1.908-5.088-5.721-5.088c-2.393,0-4.881,0.865-7.466,2.593l-2.424-3.36c3.135-2.464,6.69-3.695,10.666-3.695
		c3.038,0,5.519,0.76,7.442,2.279c1.922,1.521,2.884,3.912,2.884,7.176V382.049z M167.769,372.545v-2.16h-6.108
		c-3.911,0-5.866,1.217-5.866,3.647c0,1.248,0.485,2.2,1.455,2.856s2.319,0.984,4.048,0.984s3.24-0.48,4.533-1.441
		C167.122,375.473,167.769,374.176,167.769,372.545z"/>
	<path d="M182.41,351.448c-0.679-0.688-1.018-1.495-1.018-2.424c0-0.928,0.339-1.712,1.018-2.353
		c0.679-0.639,1.495-0.959,2.448-0.959c0.953,0,1.753,0.32,2.4,0.959c0.646,0.641,0.97,1.425,0.97,2.353
		c0,0.929-0.339,1.736-1.018,2.424c-0.679,0.688-1.479,1.032-2.4,1.032S183.088,352.137,182.41,351.448z M187.5,382.049h-5.43
		v-25.537h5.43V382.049z"/>
	<path d="M215.958,374.416c0,2.433-0.889,4.377-2.666,5.832c-1.778,1.457-4.057,2.184-6.836,2.184c-1.875,0-3.822-0.336-5.842-1.008
		c-2.02-0.672-3.806-1.615-5.357-2.832l2.618-4.176c3.006,2.24,5.915,3.36,8.727,3.36c1.228,0,2.197-0.28,2.909-0.84
		c0.71-0.56,1.066-1.272,1.066-2.136c0-1.279-1.713-2.432-5.139-3.457c-0.259-0.096-0.453-0.159-0.582-0.191
		c-5.366-1.439-8.048-3.84-8.048-7.2c0-2.368,0.929-4.264,2.788-5.688c1.858-1.423,4.274-2.135,7.248-2.135
		c2.973,0,5.785,0.863,8.436,2.592l-2.036,3.983c-2.101-1.376-4.38-2.063-6.835-2.063c-1.293,0-2.344,0.232-3.151,0.695
		c-0.808,0.465-1.212,1.16-1.212,2.088c0,0.833,0.419,1.44,1.26,1.824c0.582,0.288,1.398,0.561,2.448,0.816s1.979,0.512,2.788,0.768
		c0.808,0.257,1.592,0.545,2.352,0.864c0.759,0.32,1.576,0.769,2.448,1.345C215.085,370.192,215.958,371.984,215.958,374.416z"/>
	<path d="M257.553,371.633h-20.216c0.129,1.855,0.986,3.352,2.57,4.487c1.583,1.136,3.394,1.704,5.43,1.704
		c3.231,0,5.688-1.008,7.369-3.023l3.103,3.359c-2.78,2.849-6.399,4.271-10.86,4.271c-3.62,0-6.698-1.191-9.235-3.575
		c-2.538-2.384-3.806-5.584-3.806-9.601c0-4.016,1.292-7.207,3.878-9.576c2.585-2.367,5.631-3.551,9.139-3.551
		c3.506,0,6.488,1.048,8.944,3.144c2.456,2.097,3.685,4.984,3.685,8.664V371.633z M237.337,367.408h14.787
		c0-2.144-0.679-3.792-2.036-4.943c-1.357-1.152-3.03-1.729-5.018-1.729c-1.988,0-3.774,0.6-5.357,1.8
		S237.337,365.361,237.337,367.408z"/>
	<path d="M269.77,368.225v13.824h-5.43v-25.537h5.43v4.656c0.873-1.566,2.076-2.799,3.612-3.695
		c1.535-0.896,3.191-1.344,4.969-1.344c2.909,0,5.26,0.88,7.054,2.64c1.794,1.761,2.69,4.304,2.69,7.632v15.648h-5.43v-14.017
		c0-4.704-1.972-7.056-5.915-7.056c-1.875,0-3.507,0.616-4.896,1.848C270.465,364.057,269.77,365.856,269.77,368.225z"/>
	<path d="M303.317,360.832v12.576c0,1.217,0.323,2.184,0.97,2.904c0.646,0.72,1.551,1.08,2.715,1.08s2.278-0.56,3.345-1.68
		l2.23,3.791c-1.907,1.697-4.016,2.545-6.327,2.545c-2.311,0-4.283-0.793-5.915-2.377c-1.632-1.584-2.448-3.72-2.448-6.408v-12.432
		h-3.248v-4.32h3.248v-8.016h5.43v8.016h6.787v4.32H303.317z"/>
	<path d="M330.902,356.129l0.049,5.424c-0.097,0-0.194,0-0.291,0c-2.683,0-4.703,0.863-6.06,2.592s-2.036,4.049-2.036,6.96v10.944
		h-5.43v-25.537h5.43v5.137c0.873-1.6,2.061-2.912,3.563-3.936C327.629,356.688,329.221,356.16,330.902,356.129z"/>
	<path d="M359.262,382.049h-4.945v-3.408c-2.133,2.527-4.993,3.791-8.581,3.791c-2.683,0-4.905-0.751-6.666-2.256
		c-1.762-1.504-2.642-3.511-2.642-6.023c0-2.512,0.937-4.393,2.812-5.641c1.874-1.248,4.412-1.871,7.611-1.871h7.03v-0.961
		c0-3.391-1.908-5.088-5.721-5.088c-2.393,0-4.881,0.865-7.466,2.593l-2.424-3.36c3.135-2.464,6.69-3.695,10.666-3.695
		c3.038,0,5.519,0.76,7.442,2.279c1.922,1.521,2.884,3.912,2.884,7.176V382.049z M353.833,372.545v-2.16h-6.108
		c-3.911,0-5.866,1.217-5.866,3.647c0,1.248,0.485,2.2,1.455,2.856s2.319,0.984,4.048,0.984s3.24-0.48,4.533-1.441
		C353.186,375.473,353.833,374.176,353.833,372.545z"/>
	<path d="M380.981,356.129l0.049,5.424c-0.097,0-0.194,0-0.291,0c-2.683,0-4.703,0.863-6.06,2.592s-2.036,4.049-2.036,6.96v10.944
		h-5.43v-25.537h5.43v5.137c0.873-1.6,2.061-2.912,3.563-3.936C377.708,356.688,379.3,356.16,380.981,356.129z"/>
	<path d="M422.334,371.633h-20.216c0.129,1.855,0.986,3.352,2.57,4.487c1.583,1.136,3.394,1.704,5.43,1.704
		c3.231,0,5.688-1.008,7.369-3.023l3.103,3.359c-2.78,2.849-6.399,4.271-10.86,4.271c-3.62,0-6.698-1.191-9.235-3.575
		c-2.538-2.384-3.806-5.584-3.806-9.601c0-4.016,1.292-7.207,3.878-9.576c2.585-2.367,5.631-3.551,9.139-3.551
		c3.506,0,6.488,1.048,8.944,3.144c2.456,2.097,3.685,4.984,3.685,8.664V371.633z M402.118,367.408h14.787
		c0-2.144-0.679-3.792-2.036-4.943c-1.357-1.152-3.03-1.729-5.018-1.729c-1.988,0-3.774,0.6-5.357,1.8
		S402.118,365.361,402.118,367.408z"/>
	<path d="M434.551,368.225v13.824h-5.43v-25.537h5.43v4.656c0.776-1.566,1.947-2.799,3.515-3.695
		c1.567-0.896,3.256-1.344,5.066-1.344c4.072,0,6.835,1.664,8.29,4.991c2.553-3.327,5.736-4.991,9.55-4.991
		c2.909,0,5.26,0.88,7.054,2.64c1.793,1.761,2.69,4.304,2.69,7.632v15.648h-5.43v-14.017c0-4.704-1.972-7.056-5.915-7.056
		c-1.842,0-3.45,0.584-4.824,1.752c-1.374,1.168-2.093,2.873-2.157,5.111v14.209h-5.43v-14.017c0-2.431-0.436-4.216-1.309-5.353
		c-0.873-1.135-2.247-1.703-4.121-1.703c-1.875,0-3.507,0.616-4.896,1.848C435.246,364.057,434.551,365.856,434.551,368.225z"/>
	<path d="M512.068,377.729c-3.135,3.137-6.755,4.703-10.859,4.703c-3.587,0-6.674-1.207-9.259-3.623
		c-2.586-2.416-3.878-5.576-3.878-9.48c0-3.903,1.349-7.08,4.048-9.527c2.698-2.448,5.987-3.672,9.865-3.672
		c3.879,0,7.159,1.328,9.842,3.983L508.627,364c-2.23-1.92-4.477-2.88-6.738-2.88c-2.263,0-4.227,0.744-5.891,2.232
		c-1.665,1.487-2.497,3.407-2.497,5.76s0.816,4.345,2.448,5.976c1.632,1.633,3.66,2.448,6.084,2.448s4.703-1.087,6.836-3.264
		L512.068,377.729z"/>
	<path d="M539.412,378.616c-2.586,2.544-5.818,3.815-9.696,3.815s-7.11-1.271-9.696-3.815s-3.879-5.655-3.879-9.336
		c0-3.679,1.293-6.792,3.879-9.336s5.818-3.815,9.696-3.815s7.11,1.271,9.696,3.815c2.585,2.544,3.878,5.657,3.878,9.336
		C543.29,372.961,541.997,376.072,539.412,378.616z M523.874,375.305c1.534,1.553,3.481,2.328,5.842,2.328
		c2.358,0,4.306-0.775,5.842-2.328c1.534-1.553,2.303-3.561,2.303-6.024s-0.769-4.472-2.303-6.024
		c-1.536-1.551-3.483-2.328-5.842-2.328c-2.36,0-4.308,0.777-5.842,2.328c-1.536,1.553-2.303,3.561-2.303,6.024
		S522.338,373.752,523.874,375.305z"/>
	<path d="M555.847,368.225v13.824h-5.43v-25.537h5.43v4.656c0.872-1.566,2.076-2.799,3.612-3.695
		c1.534-0.896,3.191-1.344,4.969-1.344c2.908,0,5.26,0.88,7.054,2.64c1.794,1.761,2.69,4.304,2.69,7.632v15.648h-5.43v-14.017
		c0-4.704-1.972-7.056-5.914-7.056c-1.875,0-3.508,0.616-4.896,1.848C556.541,364.057,555.847,365.856,555.847,368.225z"/>
	<path d="M589.395,360.832v12.576c0,1.217,0.322,2.184,0.969,2.904c0.646,0.72,1.552,1.08,2.715,1.08c1.164,0,2.279-0.56,3.346-1.68
		l2.23,3.791c-1.908,1.697-4.017,2.545-6.327,2.545c-2.312,0-4.282-0.793-5.915-2.377c-1.632-1.584-2.447-3.72-2.447-6.408v-12.432
		h-3.248v-4.32h3.248v-8.016h5.43v8.016h6.787v4.32H589.395z"/>
	<path d="M624.59,382.049h-4.945v-3.408c-2.133,2.527-4.992,3.791-8.58,3.791c-2.684,0-4.905-0.751-6.666-2.256
		c-1.762-1.504-2.643-3.511-2.643-6.023c0-2.512,0.938-4.393,2.812-5.641c1.873-1.248,4.411-1.871,7.611-1.871h7.029v-0.961
		c0-3.391-1.908-5.088-5.721-5.088c-2.393,0-4.881,0.865-7.467,2.593l-2.424-3.36c3.135-2.464,6.691-3.695,10.666-3.695
		c3.037,0,5.519,0.76,7.441,2.279c1.923,1.521,2.885,3.912,2.885,7.176V382.049z M619.16,372.545v-2.16h-6.108
		c-3.911,0-5.866,1.217-5.866,3.647c0,1.248,0.484,2.2,1.455,2.856c0.969,0.656,2.318,0.984,4.047,0.984
		c1.729,0,3.24-0.48,4.533-1.441C618.514,375.473,619.16,374.176,619.16,372.545z"/>
	<path d="M639.521,360.832v12.576c0,1.217,0.322,2.184,0.97,2.904c0.646,0.72,1.552,1.08,2.715,1.08s2.278-0.56,3.345-1.68
		l2.23,3.791c-1.907,1.697-4.016,2.545-6.326,2.545c-2.312,0-4.283-0.793-5.915-2.377s-2.448-3.72-2.448-6.408v-12.432h-3.248v-4.32
		h3.248v-8.016h5.43v8.016h6.787v4.32H639.521z"/>
	<path d="M674.669,378.616c-2.586,2.544-5.817,3.815-9.696,3.815c-3.878,0-7.11-1.271-9.695-3.815
		c-2.586-2.544-3.879-5.655-3.879-9.336c0-3.679,1.293-6.792,3.879-9.336c2.585-2.544,5.817-3.815,9.695-3.815
		c3.879,0,7.11,1.271,9.696,3.815c2.585,2.544,3.878,5.657,3.878,9.336C678.547,372.961,677.254,376.072,674.669,378.616z
		 M659.131,375.305c1.535,1.553,3.482,2.328,5.842,2.328s4.307-0.775,5.842-2.328s2.303-3.561,2.303-6.024s-0.768-4.472-2.303-6.024
		c-1.535-1.551-3.482-2.328-5.842-2.328s-4.307,0.777-5.842,2.328c-1.535,1.553-2.303,3.561-2.303,6.024
		S657.596,373.752,659.131,375.305z"/>
	<path d="M718.349,377.729c-3.136,3.137-6.755,4.703-10.859,4.703c-3.588,0-6.675-1.207-9.26-3.623
		c-2.586-2.416-3.878-5.576-3.878-9.48c0-3.903,1.349-7.08,4.047-9.527c2.699-2.448,5.988-3.672,9.866-3.672
		s7.159,1.328,9.842,3.983l-3.2,3.888c-2.23-1.92-4.477-2.88-6.738-2.88c-2.263,0-4.227,0.744-5.891,2.232
		c-1.665,1.487-2.496,3.407-2.496,5.76s0.815,4.345,2.447,5.976c1.633,1.633,3.66,2.448,6.085,2.448
		c2.424,0,4.702-1.087,6.835-3.264L718.349,377.729z"/>
	<path d="M745.691,378.616c-2.586,2.544-5.816,3.815-9.695,3.815s-7.111-1.271-9.696-3.815c-2.586-2.544-3.878-5.655-3.878-9.336
		c0-3.679,1.292-6.792,3.878-9.336c2.585-2.544,5.817-3.815,9.696-3.815s7.109,1.271,9.695,3.815s3.879,5.657,3.879,9.336
		C749.57,372.961,748.277,376.072,745.691,378.616z M730.154,375.305c1.535,1.553,3.482,2.328,5.842,2.328s4.307-0.775,5.842-2.328
		s2.303-3.561,2.303-6.024s-0.768-4.472-2.303-6.024c-1.535-1.551-3.482-2.328-5.842-2.328s-4.307,0.777-5.842,2.328
		c-1.535,1.553-2.303,3.561-2.303,6.024S728.619,373.752,730.154,375.305z"/>
	<path d="M762.127,368.225v13.824h-5.43v-25.537h5.43v4.656c0.775-1.566,1.946-2.799,3.514-3.695
		c1.568-0.896,3.256-1.344,5.066-1.344c4.072,0,6.836,1.664,8.291,4.991c2.553-3.327,5.736-4.991,9.55-4.991
		c2.909,0,5.261,0.88,7.054,2.64c1.794,1.761,2.691,4.304,2.691,7.632v15.648h-5.43v-14.017c0-4.704-1.973-7.056-5.915-7.056
		c-1.843,0-3.45,0.584-4.823,1.752c-1.375,1.168-2.094,2.873-2.158,5.111v14.209h-5.43v-14.017c0-2.431-0.436-4.216-1.309-5.353
		c-0.873-1.135-2.247-1.703-4.121-1.703c-1.875,0-3.507,0.616-4.896,1.848C762.821,364.057,762.127,365.856,762.127,368.225z"/>
	<path d="M838.481,378.616c-2.586,2.544-5.817,3.815-9.696,3.815c-3.878,0-7.11-1.271-9.695-3.815
		c-2.587-2.544-3.879-5.655-3.879-9.336c0-3.679,1.292-6.792,3.879-9.336c2.585-2.544,5.817-3.815,9.695-3.815
		c3.879,0,7.11,1.271,9.696,3.815c2.585,2.544,3.879,5.657,3.879,9.336C842.36,372.961,841.066,376.072,838.481,378.616z
		 M822.943,375.305c1.535,1.553,3.482,2.328,5.842,2.328s4.307-0.775,5.842-2.328s2.303-3.561,2.303-6.024s-0.768-4.472-2.303-6.024
		c-1.535-1.551-3.482-2.328-5.842-2.328s-4.307,0.777-5.842,2.328c-1.535,1.553-2.303,3.561-2.303,6.024
		S821.408,373.752,822.943,375.305z"/>
	<path d="M868.15,374.416c0,2.433-0.89,4.377-2.667,5.832c-1.777,1.457-4.056,2.184-6.835,2.184c-1.875,0-3.823-0.336-5.843-1.008
		s-3.806-1.615-5.356-2.832l2.618-4.176c3.006,2.24,5.914,3.36,8.726,3.36c1.229,0,2.198-0.28,2.909-0.84s1.066-1.272,1.066-2.136
		c0-1.279-1.713-2.432-5.139-3.457c-0.259-0.096-0.453-0.159-0.582-0.191c-5.365-1.439-8.048-3.84-8.048-7.2
		c0-2.368,0.929-4.264,2.788-5.688c1.858-1.423,4.273-2.135,7.248-2.135c2.973,0,5.785,0.863,8.436,2.592l-2.036,3.983
		c-2.102-1.376-4.38-2.063-6.836-2.063c-1.293,0-2.344,0.232-3.151,0.695c-0.809,0.465-1.212,1.16-1.212,2.088
		c0,0.833,0.42,1.44,1.261,1.824c0.581,0.288,1.397,0.561,2.448,0.816c1.05,0.256,1.979,0.512,2.787,0.768
		c0.808,0.257,1.592,0.545,2.352,0.864c0.759,0.32,1.575,0.769,2.448,1.345C867.277,370.192,868.15,371.984,868.15,374.416z"/>
	<path d="M354.414,438.049h-4.945v-3.408c-2.133,2.527-4.993,3.791-8.581,3.791c-2.683,0-4.905-0.75-6.666-2.256
		c-1.762-1.504-2.642-3.512-2.642-6.023s0.937-4.393,2.812-5.641c1.874-1.248,4.412-1.871,7.611-1.871h7.03v-0.961
		c0-3.391-1.908-5.088-5.721-5.088c-2.393,0-4.881,0.865-7.466,2.593l-2.424-3.36c3.135-2.464,6.69-3.695,10.666-3.695
		c3.038,0,5.519,0.76,7.442,2.279c1.922,1.521,2.884,3.912,2.884,7.176V438.049z M348.984,428.545v-2.16h-6.108
		c-3.911,0-5.866,1.217-5.866,3.648c0,1.248,0.485,2.199,1.455,2.855s2.319,0.984,4.048,0.984s3.24-0.48,4.533-1.441
		C348.337,431.473,348.984,430.176,348.984,428.545z"/>
	<path d="M385.393,412.512v22.273c0,4.512-1.236,7.895-3.708,10.15c-2.473,2.256-5.648,3.385-9.526,3.385s-7.386-1.199-10.52-3.6
		l2.569-4.08c2.521,1.887,5.066,2.832,7.635,2.832c2.57,0,4.606-0.656,6.109-1.969s2.254-3.408,2.254-6.287v-3.264
		c-0.808,1.504-1.963,2.703-3.466,3.6c-1.502,0.896-3.192,1.344-5.066,1.344c-3.426,0-6.238-1.184-8.436-3.553
		c-2.198-2.367-3.297-5.311-3.297-8.832c0-3.52,1.099-6.463,3.297-8.832c2.197-2.367,5.001-3.551,8.411-3.551
		c3.41,0,6.181,1.392,8.314,4.176v-3.793H385.393z M365.273,424.297c0,2.096,0.654,3.904,1.963,5.424s3.07,2.279,5.284,2.279
		s4.007-0.736,5.381-2.207c1.374-1.473,2.061-3.305,2.061-5.496s-0.695-4.049-2.084-5.568c-1.39-1.52-3.184-2.28-5.381-2.28
		c-2.198,0-3.951,0.784-5.26,2.353S365.273,422.201,365.273,424.297z"/>
	<path d="M408.081,412.129l0.049,5.424c-0.097,0-0.194,0-0.291,0c-2.683,0-4.703,0.863-6.06,2.592s-2.036,4.049-2.036,6.959v10.945
		h-5.43v-25.537h5.43v5.137c0.873-1.6,2.061-2.912,3.563-3.936C404.809,412.688,406.4,412.16,408.081,412.129z"/>
	<path d="M436.393,434.617c-2.586,2.543-5.817,3.814-9.696,3.814s-7.111-1.271-9.696-3.814c-2.586-2.545-3.878-5.656-3.878-9.336
		s1.292-6.793,3.878-9.337c2.585-2.544,5.818-3.815,9.696-3.815s7.11,1.271,9.696,3.815c2.585,2.544,3.878,5.657,3.878,9.337
		S438.979,432.072,436.393,434.617z M420.855,431.305c1.535,1.553,3.482,2.328,5.842,2.328c2.359,0,4.306-0.775,5.842-2.328
		c1.535-1.553,2.303-3.561,2.303-6.023c0-2.465-0.768-4.473-2.303-6.025c-1.536-1.551-3.483-2.328-5.842-2.328
		c-2.36,0-4.307,0.777-5.842,2.328c-1.536,1.553-2.303,3.561-2.303,6.025C418.553,427.744,419.32,429.752,420.855,431.305z"/>
	<path d="M454.379,416.832v12.576c0,1.217,0.323,2.184,0.97,2.904c0.646,0.721,1.551,1.08,2.715,1.08s2.278-0.561,3.345-1.68
		l2.23,3.791c-1.907,1.697-4.016,2.545-6.327,2.545c-2.311,0-4.283-0.793-5.915-2.377c-1.632-1.584-2.448-3.719-2.448-6.408v-12.432
		h-3.248v-4.32h3.248v-8.016h5.43v8.016h6.787v4.32H454.379z"/>
	<path d="M489.527,434.617c-2.586,2.543-5.817,3.814-9.696,3.814s-7.111-1.271-9.696-3.814c-2.586-2.545-3.878-5.656-3.878-9.336
		s1.292-6.793,3.878-9.337c2.585-2.544,5.818-3.815,9.696-3.815s7.11,1.271,9.696,3.815c2.585,2.544,3.878,5.657,3.878,9.337
		S492.112,432.072,489.527,434.617z M473.989,431.305c1.535,1.553,3.482,2.328,5.842,2.328c2.359,0,4.306-0.775,5.842-2.328
		c1.535-1.553,2.303-3.561,2.303-6.023c0-2.465-0.768-4.473-2.303-6.025c-1.536-1.551-3.483-2.328-5.842-2.328
		c-2.36,0-4.307,0.777-5.842,2.328c-1.536,1.553-2.303,3.561-2.303,6.025C471.687,427.744,472.454,429.752,473.989,431.305z
		 M482.109,409.248h-4.945l5.139-6.959l5.721,2.352L482.109,409.248z"/>
	<path d="M505.574,412.512l5.525,8.4l5.721-8.4h6.448l-9.017,12.48l9.404,13.057h-6.689l-6.157-8.496l-6.012,8.496h-6.351
		l9.163-13.008l-8.678-12.529H505.574z"/>
	<path d="M531.946,407.448c-0.679-0.688-1.019-1.495-1.019-2.424c0-0.928,0.34-1.712,1.019-2.353
		c0.679-0.639,1.495-0.959,2.448-0.959s1.753,0.32,2.4,0.959c0.646,0.641,0.969,1.425,0.969,2.353c0,0.929-0.339,1.736-1.018,2.424
		c-0.679,0.688-1.479,1.032-2.4,1.032C533.426,408.48,532.625,408.137,531.946,407.448z M537.037,438.049h-5.43v-25.537h5.43
		V438.049z"/>
	<path d="M569.324,433.729c-3.135,3.137-6.756,4.703-10.859,4.703c-3.588,0-6.674-1.207-9.26-3.623s-3.879-5.576-3.879-9.48
		c0-3.903,1.35-7.08,4.049-9.527c2.697-2.448,5.986-3.672,9.865-3.672s7.158,1.328,9.842,3.983L565.883,420
		c-2.23-1.92-4.478-2.88-6.739-2.88c-2.263,0-4.226,0.744-5.891,2.232c-1.665,1.487-2.497,3.407-2.497,5.761
		c0,2.352,0.816,4.344,2.449,5.975c1.631,1.633,3.66,2.449,6.084,2.449s4.702-1.088,6.836-3.266L569.324,433.729z"/>
	<path d="M596.667,434.617c-2.586,2.543-5.817,3.814-9.696,3.814c-3.878,0-7.11-1.271-9.695-3.814
		c-2.586-2.545-3.879-5.656-3.879-9.336s1.293-6.793,3.879-9.337c2.585-2.544,5.817-3.815,9.695-3.815
		c3.879,0,7.11,1.271,9.696,3.815c2.585,2.544,3.878,5.657,3.878,9.337S599.252,432.072,596.667,434.617z M581.129,431.305
		c1.535,1.553,3.482,2.328,5.842,2.328s4.307-0.775,5.842-2.328s2.303-3.561,2.303-6.023c0-2.465-0.768-4.473-2.303-6.025
		c-1.535-1.551-3.482-2.328-5.842-2.328s-4.307,0.777-5.842,2.328c-1.535,1.553-2.303,3.561-2.303,6.025
		C578.826,427.744,579.594,429.752,581.129,431.305z"/>
	<path d="M626.336,430.416c0,2.432-0.889,4.377-2.666,5.832c-1.777,1.457-4.057,2.184-6.836,2.184c-1.875,0-3.822-0.336-5.842-1.008
		s-3.805-1.615-5.356-2.832l2.618-4.176c3.006,2.24,5.914,3.359,8.727,3.359c1.228,0,2.197-0.279,2.908-0.84
		c0.711-0.559,1.066-1.271,1.066-2.135c0-1.279-1.713-2.432-5.139-3.457c-0.26-0.096-0.453-0.158-0.582-0.191
		c-5.365-1.439-8.047-3.84-8.047-7.2c0-2.368,0.928-4.264,2.787-5.688c1.857-1.423,4.273-2.135,7.248-2.135
		c2.973,0,5.785,0.863,8.436,2.592l-2.037,3.983c-2.101-1.376-4.379-2.063-6.835-2.063c-1.293,0-2.344,0.232-3.151,0.695
		c-0.809,0.465-1.212,1.16-1.212,2.088c0,0.833,0.419,1.44,1.261,1.824c0.582,0.288,1.397,0.561,2.447,0.816
		c1.051,0.256,1.98,0.512,2.788,0.768s1.592,0.545,2.352,0.865c0.759,0.318,1.575,0.768,2.448,1.344
		C625.464,426.191,626.336,427.984,626.336,430.416z"/>
	<path d="M631.693,437.377c-0.695-0.705-1.041-1.553-1.041-2.545c0-0.99,0.346-1.832,1.041-2.52s1.543-1.031,2.546-1.031
		c1.001,0,1.858,0.344,2.569,1.031s1.066,1.529,1.066,2.52c0,0.992-0.355,1.84-1.066,2.545c-0.711,0.703-1.568,1.055-2.569,1.055
		C633.236,438.432,632.389,438.08,631.693,437.377z"/>
</g>
</svg>
